<svg width="98" height="286" viewBox="0 0 98 286" fill="none" xmlns="http://www.w3.org/2000/svg">
<path opacity="0.4" d="M98 284.5L94.0218 280.316L92.3873 285.854L98 284.5ZM39.5727 0.0403412C39.2407 0.58665 38.8895 1.16597 38.5209 1.77848L39.3777 2.29413C39.7453 1.68332 40.0956 1.10535 40.4273 0.559756L39.5727 0.0403412ZM36.4515 5.26996C35.811 6.36953 35.1369 7.54582 34.4347 8.79987L35.3072 9.28844C36.0064 8.03984 36.6776 6.86852 37.3156 5.77334L36.4515 5.26996ZM32.474 12.3762C31.8555 13.5289 31.2212 14.7353 30.574 15.9961L31.4636 16.4528C32.1079 15.1976 32.7395 13.9966 33.3552 12.849L32.474 12.3762ZM28.7523 19.6249C28.1724 20.8061 27.585 22.0287 26.992 23.2931L27.8974 23.7177C28.4878 22.4588 29.0727 21.2416 29.6499 20.0655L28.7523 19.6249ZM25.2953 26.9947C24.7536 28.2043 24.2088 29.4481 23.6624 30.7262L24.582 31.1193C25.126 29.8464 25.6685 28.6079 26.208 27.4034L25.2953 26.9947ZM22.0928 34.4858C21.5901 35.7189 21.0872 36.9811 20.5853 38.2727L21.5174 38.6349C22.0173 37.3485 22.5182 36.0913 23.0188 34.8633L22.0928 34.4858ZM19.1388 42.0868C18.6744 43.3417 18.2118 44.6222 17.7518 45.9286L18.695 46.2607C19.1532 44.9594 19.6141 43.6838 20.0766 42.4339L19.1388 42.0868ZM16.4337 49.7668C16.0102 51.0317 15.5897 52.3193 15.1731 53.6297L16.126 53.9327C16.5412 52.6272 16.9601 51.3445 17.382 50.0843L16.4337 49.7668ZM13.9683 57.519C13.5807 58.8041 13.1972 60.1099 12.8183 61.4364L13.7798 61.711C14.1573 60.3893 14.5395 59.0882 14.9257 57.8078L13.9683 57.519ZM11.7275 65.3619C11.3791 66.6516 11.0354 67.9598 10.6969 69.2867L11.6659 69.5339C12.0032 68.2115 12.3458 66.9078 12.6929 65.6227L11.7275 65.3619ZM9.71729 73.2416C9.40226 74.5521 9.09251 75.88 8.78851 77.2253L9.76392 77.4457C10.0669 76.1049 10.3756 74.7814 10.6896 73.4753L9.71729 73.2416ZM7.92221 81.1814C7.64359 82.4953 7.37059 83.8252 7.1036 85.1711L8.08449 85.3657C8.35062 84.0241 8.62274 82.6985 8.90046 81.3888L7.92221 81.1814ZM6.3344 89.1848C6.09122 90.4995 5.85389 91.8288 5.62275 93.1729L6.60828 93.3424C6.83871 92.0025 7.07531 90.6773 7.31772 89.3667L6.3344 89.1848ZM4.95623 97.1989C4.74506 98.5256 4.53998 99.8661 4.34131 101.22L5.33072 101.366C5.5288 100.015 5.73327 98.6788 5.9438 97.3561L4.95623 97.1989ZM3.77569 105.244C3.59556 106.584 3.42175 107.936 3.25453 109.302L4.24712 109.424C4.41385 108.062 4.58717 106.713 4.76677 105.378L3.77569 105.244ZM2.78581 113.323C2.63704 114.666 2.49468 116.021 2.35898 117.389L3.35409 117.487C3.48942 116.124 3.63138 114.772 3.77973 113.433L2.78581 113.323ZM1.98133 121.425C1.86313 122.768 1.75138 124.123 1.6463 125.49L2.64336 125.566C2.74815 124.203 2.85961 122.852 2.97748 121.512L1.98133 121.425ZM1.35669 129.543C1.26793 130.887 1.18563 132.242 1.10999 133.608L2.10846 133.663C2.1839 132.301 2.26599 130.949 2.35452 129.609L1.35669 129.543ZM0.90621 137.672C0.845816 139.017 0.791875 140.372 0.744577 141.737L1.74398 141.771C1.79116 140.41 1.84496 139.058 1.9052 137.717L0.90621 137.672ZM0.624186 145.807C0.591163 147.152 0.564582 148.508 0.544616 149.873L1.54451 149.888C1.56443 148.526 1.59094 147.174 1.62388 145.831L0.624186 145.807ZM0.504999 153.944C0.501673 154.627 0.5 155.312 0.5 156H1.5C1.5 155.314 1.50167 154.63 1.50499 153.948L0.504999 153.944ZM0.5 156C0.5 156.667 0.504389 157.331 0.513113 157.992L1.51303 157.979C1.50436 157.322 1.5 156.663 1.5 156H0.5ZM0.617052 161.924C0.669727 163.248 0.739956 164.56 0.827283 165.861L1.82504 165.794C1.73832 164.502 1.66858 163.199 1.61626 161.885L0.617052 161.924ZM1.14459 169.774C1.27031 171.095 1.41385 172.404 1.57471 173.701L2.5671 173.578C2.40742 172.291 2.26491 170.991 2.14009 169.679L1.14459 169.774ZM2.1128 177.58C2.31462 178.894 2.5344 180.195 2.77158 181.484L3.75505 181.303C3.51967 180.024 3.30153 178.733 3.10122 177.428L2.1128 177.58ZM3.54021 185.334C3.81905 186.629 4.11562 187.911 4.42933 189.178L5.40005 188.938C5.08878 187.68 4.7945 186.409 4.51781 185.124L3.54021 185.334ZM5.43438 192.987C5.79042 194.257 6.16377 195.512 6.55379 196.753L7.50778 196.453C7.12087 195.222 6.75047 193.977 6.39723 192.717L5.43438 192.987ZM7.79746 200.503C8.23224 201.748 8.6839 202.979 9.15172 204.194L10.085 203.835C9.6209 202.629 9.17286 201.409 8.74155 200.174L7.79746 200.503ZM10.6258 207.85C11.1396 209.068 11.6697 210.271 12.2154 211.458L13.1241 211.041C12.5827 209.863 12.0569 208.67 11.5472 207.461L10.6258 207.85ZM13.9124 215.002C14.5025 216.186 15.1081 217.354 15.7284 218.506L16.6089 218.032C15.9936 216.889 15.3928 215.731 14.8074 214.556L13.9124 215.002ZM17.6507 221.946C18.3111 223.086 18.9858 224.208 19.674 225.315L20.5232 224.787C19.8404 223.689 19.171 222.575 18.5159 221.445L17.6507 221.946ZM21.8099 228.634C22.5413 229.733 23.286 230.815 24.0429 231.88L24.8581 231.301C24.107 230.244 23.3681 229.171 22.6423 228.08L21.8099 228.634ZM26.3684 235.051C27.1658 236.104 27.9751 237.14 28.7951 238.159L29.5741 237.532C28.7602 236.521 27.9571 235.492 27.1657 234.447L26.3684 235.051ZM31.3116 241.192C32.1682 242.194 33.0349 243.179 33.9107 244.145L34.6517 243.474C33.7823 242.514 32.922 241.537 32.0718 240.543L31.3116 241.192ZM36.5951 247.024C37.5105 247.978 38.4344 248.914 39.3656 249.831L40.0673 249.119C39.1428 248.208 38.2255 247.279 37.3167 246.332L36.5951 247.024ZM42.2088 252.555C43.1735 253.454 44.1446 254.334 45.121 255.196L45.7825 254.446C44.8129 253.59 43.8485 252.716 42.8905 251.824L42.2088 252.555ZM48.1108 257.762C49.1268 258.61 50.1471 259.439 51.1704 260.249L51.7907 259.464C50.7743 258.66 49.761 257.837 48.7519 256.994L48.1108 257.762ZM54.2907 262.65C55.3487 263.442 56.4084 264.214 57.4685 264.965L58.0467 264.149C56.9937 263.403 55.941 262.636 54.8901 261.849L54.2907 262.65ZM60.7056 267.197C61.8091 267.937 62.9113 268.655 64.0107 269.351L64.5458 268.506C63.4536 267.815 62.3587 267.101 61.2625 266.366L60.7056 267.197ZM67.3678 271.417C68.509 272.098 69.6454 272.757 70.775 273.392L71.2652 272.521C70.1432 271.89 69.0144 271.235 67.8807 270.558L67.3678 271.417ZM74.2312 275.276C75.4097 275.898 76.5786 276.495 77.7356 277.066L78.1783 276.17C77.0294 275.602 75.8686 275.01 74.6981 274.392L74.2312 275.276ZM81.2883 278.759C82.5061 279.319 83.7075 279.849 84.8899 280.35L85.2805 279.43C84.1071 278.932 82.9146 278.406 81.7057 277.85L81.2883 278.759ZM88.5416 281.834C89.8039 282.323 91.0394 282.778 92.2444 283.199L92.574 282.255C91.38 281.838 90.1552 281.387 88.9032 280.901L88.5416 281.834Z" fill="#9E9E9E"/>
</svg>
