<svg width="534" height="166" viewBox="0 0 534 166" fill="none" xmlns="http://www.w3.org/2000/svg">
<path opacity="0.4" d="M531.288 71.8475L531.777 71.7442L531.288 71.8475ZM379.205 142.229L379.412 141.774L379.205 142.229ZM3 166L6.00957 161.073L0.237831 160.93L3 166ZM3.9461 160.037C4.14652 158.717 4.41302 157.419 4.74266 156.144L3.77446 155.893C3.43637 157.202 3.163 158.533 2.95742 159.887L3.9461 160.037ZM5.93171 152.346C6.3907 151.102 6.91125 149.88 7.4904 148.68L6.58979 148.245C5.99709 149.473 5.46392 150.725 4.99352 152L5.93171 152.346ZM9.38287 145.175C10.0599 144.044 10.7901 142.933 11.5709 141.844L10.7579 141.261C9.96184 142.373 9.21645 143.506 8.52483 144.661L9.38287 145.175ZM14.0162 138.69C14.8616 137.678 15.7513 136.685 16.683 135.711L15.9603 135.02C15.0139 136.009 14.1092 137.019 13.2488 138.048L14.0162 138.69ZM19.5397 132.901C20.51 132.002 21.5166 131.119 22.5571 130.254L21.9176 129.485C20.8639 130.361 19.8439 131.255 18.8598 132.168L19.5397 132.901ZM25.6914 127.774C26.7469 126.978 27.8315 126.199 28.9431 125.434L28.3764 124.61C27.2534 125.382 26.1571 126.171 25.0896 126.975L25.6914 127.774ZM32.2969 123.224C33.4215 122.514 34.5695 121.818 35.7392 121.136L35.2356 120.272C34.0561 120.96 32.8979 121.662 31.7629 122.379L32.2969 123.224ZM39.2324 119.176C40.4013 118.544 41.5887 117.925 42.793 117.32L42.3438 116.426C41.131 117.036 39.9348 117.659 38.757 118.296L39.2324 119.176ZM46.4137 115.561C47.6201 114.996 48.8411 114.442 50.0751 113.901L49.6733 112.985C48.4319 113.529 47.2033 114.086 45.989 114.656L46.4137 115.561ZM53.772 112.331C55.0078 111.823 56.2548 111.327 57.5114 110.842L57.1516 109.909C55.8884 110.396 54.6346 110.895 53.3918 111.406L53.772 112.331ZM61.2815 109.433C62.5382 108.978 63.803 108.534 65.0744 108.101L64.7521 107.155C63.4748 107.589 62.2039 108.036 60.941 108.493L61.2815 109.433ZM68.8968 106.84C70.1733 106.431 71.455 106.034 72.7405 105.647L72.4525 104.689C71.1615 105.078 69.8742 105.477 68.5921 105.887L68.8968 106.84ZM76.6042 104.52C77.8964 104.155 79.1911 103.801 80.4869 103.457L80.2305 102.491C78.9296 102.836 77.6297 103.191 76.3322 103.558L76.6042 104.52ZM84.3825 102.456C85.6891 102.131 86.9955 101.817 88.3003 101.514L88.0737 100.54C86.7641 100.844 85.4528 101.16 84.1412 101.486L84.3825 102.456ZM92.2284 100.631C93.5426 100.346 94.8536 100.071 96.1601 99.8074L95.9622 98.8271C94.651 99.0919 93.3353 99.3673 92.0163 99.6536L92.2284 100.631ZM100.121 99.0375C101.449 98.7892 102.772 98.5521 104.086 98.326L103.917 97.3404C102.597 97.5674 101.271 97.8054 99.9372 98.0546L100.121 99.0375ZM108.05 97.6733C109.388 97.4629 110.717 97.264 112.034 97.0767L111.893 96.0866C110.571 96.2747 109.238 96.4742 107.894 96.6855L108.05 97.6733ZM116.032 96.5382C117.379 96.3671 118.712 96.2084 120.028 96.062L119.918 95.0681C118.596 95.2151 117.259 95.3744 115.906 95.5462L116.032 96.5382ZM124.019 95.6503C125.377 95.5215 126.714 95.4063 128.028 95.3047L127.951 94.3076C126.631 94.4098 125.288 94.5255 123.925 94.6548L124.019 95.6503ZM132.055 95.0306C133.428 94.9504 134.77 94.8859 136.079 94.837L136.042 93.8377C134.726 93.8869 133.376 93.9517 131.996 94.0323L132.055 95.0306ZM140.102 94.7337C140.771 94.7248 141.429 94.7203 142.076 94.7203V93.7203C141.424 93.7203 140.762 93.7248 140.089 93.7338L140.102 94.7337ZM142.076 94.7203C142.613 94.7203 143.263 94.7132 144.021 94.702L144.006 93.7021C143.25 93.7133 142.606 93.7203 142.076 93.7203V94.7203ZM147.943 94.6366C149.135 94.6174 150.459 94.5982 151.909 94.5831L151.898 93.5831C150.446 93.5982 149.12 93.6175 147.927 93.6367L147.943 94.6366ZM155.828 94.5562C157.073 94.5522 158.387 94.5525 159.768 94.5588L159.772 93.5588C158.388 93.5525 157.072 93.5522 155.824 93.5562L155.828 94.5562ZM163.702 94.5921C164.958 94.6077 166.259 94.6285 167.605 94.6557L167.625 93.6559C166.276 93.6287 164.973 93.6078 163.714 93.5922L163.702 94.5921ZM171.524 94.75C172.805 94.7858 174.122 94.8274 175.471 94.8756L175.507 93.8763C174.155 93.828 172.836 93.7862 171.552 93.7504L171.524 94.75ZM179.415 95.0317C180.688 95.0869 181.988 95.148 183.314 95.2156L183.364 94.2169C182.036 94.1492 180.734 94.088 179.459 94.0326L179.415 95.0317ZM187.26 95.4316C188.544 95.5068 189.851 95.588 191.179 95.6757L191.245 94.6779C189.914 94.59 188.605 94.5087 187.319 94.4334L187.26 95.4316ZM195.092 95.9486C196.39 96.0439 197.706 96.1453 199.042 96.2534L199.122 95.2566C197.784 95.1484 196.465 95.0467 195.165 94.9512L195.092 95.9486ZM202.928 96.582C204.23 96.6969 205.549 96.818 206.883 96.9456L206.978 95.9502C205.641 95.8223 204.32 95.701 203.016 95.5859L202.928 96.582ZM210.758 97.3303C212.058 97.4641 213.372 97.604 214.7 97.7505L214.81 96.7565C213.479 96.6098 212.163 96.4695 210.86 96.3355L210.758 97.3303ZM218.576 98.1919C219.875 98.3446 221.187 98.5035 222.512 98.6688L222.635 97.6766C221.309 97.5109 219.994 97.3517 218.693 97.1987L218.576 98.1919ZM226.38 99.1659C227.68 99.3376 228.992 99.5156 230.314 99.7L230.452 98.7096C229.127 98.5249 227.814 98.3466 226.511 98.1745L226.38 99.1659ZM234.17 100.252C235.465 100.442 236.771 100.638 238.085 100.84L238.238 99.8521C236.92 99.6492 235.613 99.4527 234.315 99.2623L234.17 100.252ZM241.945 101.449C243.234 101.657 244.532 101.871 245.838 102.091L246.004 101.105C244.696 100.885 243.396 100.67 242.105 100.462L241.945 101.449ZM249.707 102.758C250.988 102.984 252.277 103.215 253.574 103.453L253.754 102.469C252.455 102.231 251.164 101.999 249.88 101.773L249.707 102.758ZM257.454 104.179C258.727 104.422 260.008 104.671 261.295 104.926L261.489 103.945C260.2 103.69 258.917 103.44 257.642 103.197L257.454 104.179ZM265.177 105.71C266.445 105.971 267.72 106.238 269.001 106.511L269.209 105.533C267.926 105.259 266.649 104.992 265.378 104.73L265.177 105.71ZM272.85 107.346C274.125 107.627 275.405 107.914 276.692 108.208L276.914 107.233C275.626 106.939 274.343 106.651 273.066 106.369L272.85 107.346ZM280.509 109.093C281.787 109.394 283.071 109.702 284.36 110.016L284.596 109.044C283.305 108.73 282.019 108.422 280.739 108.12L280.509 109.093ZM288.153 110.953C289.42 111.271 290.691 111.595 291.968 111.926L292.218 110.958C290.939 110.627 289.665 110.302 288.396 109.983L288.153 110.953ZM295.781 112.927C297.036 113.262 298.296 113.602 299.56 113.949L299.824 112.984C298.558 112.637 297.296 112.296 296.038 111.961L295.781 112.927ZM303.365 115.007C304.618 115.361 305.875 115.72 307.136 116.086L307.415 115.126C306.151 114.759 304.892 114.399 303.636 114.045L303.365 115.007ZM310.903 117.193C312.163 117.569 313.426 117.95 314.693 118.338L314.985 117.381C313.716 116.993 312.45 116.611 311.189 116.235L310.903 117.193ZM318.424 119.494C319.671 119.886 320.921 120.283 322.174 120.687L322.48 119.735C321.225 119.33 319.973 118.932 318.724 118.54L318.424 119.494ZM325.927 121.911C327.161 122.318 328.398 122.732 329.637 123.151L329.958 122.204C328.716 121.784 327.477 121.369 326.241 120.961L325.927 121.911ZM333.365 124.428C334.601 124.857 335.84 125.291 337.081 125.732L337.416 124.79C336.172 124.348 334.931 123.913 333.692 123.483L333.365 124.428ZM340.767 127.056C341.998 127.504 343.232 127.957 344.468 128.417L344.817 127.48C343.578 127.019 342.342 126.565 341.109 126.117L340.767 127.056ZM348.149 129.802C349.367 130.265 350.586 130.734 351.808 131.21L352.17 130.278C350.946 129.801 349.724 129.331 348.505 128.867L348.149 129.802ZM355.479 132.654C356.692 133.136 357.907 133.625 359.125 134.12L359.501 133.193C358.282 132.698 357.064 132.208 355.848 131.724L355.479 132.654ZM362.752 135.61C363.962 136.113 365.175 136.622 366.389 137.137L366.78 136.216C365.563 135.7 364.348 135.19 363.135 134.686L362.752 135.61ZM370.001 138.685C371.197 139.203 372.394 139.727 373.593 140.257L373.997 139.342C372.796 138.811 371.597 138.286 370.398 137.767L370.001 138.685ZM377.194 141.866C377.795 142.137 378.396 142.409 378.998 142.684L379.412 141.774C378.81 141.499 378.207 141.226 377.605 140.954L377.194 141.866ZM378.998 142.684C379.621 142.968 380.243 143.249 380.862 143.526L381.271 142.614C380.653 142.337 380.034 142.057 379.412 141.774L378.998 142.684ZM384.555 145.15C385.778 145.677 386.993 146.191 388.2 146.692L388.584 145.768C387.381 145.269 386.17 144.757 384.951 144.231L384.555 145.15ZM391.912 148.199C393.172 148.699 394.424 149.185 395.666 149.656L396.021 148.721C394.783 148.252 393.537 147.768 392.282 147.269L391.912 148.199ZM399.367 151.026C400.646 151.488 401.915 151.934 403.175 152.365L403.499 151.419C402.244 150.99 400.98 150.546 399.706 150.086L399.367 151.026ZM406.976 153.626C408.242 154.034 409.499 154.426 410.745 154.802L411.034 153.845C409.793 153.47 408.543 153.08 407.282 152.675L406.976 153.626ZM414.641 155.936C415.929 156.296 417.205 156.64 418.471 156.967L418.721 155.999C417.462 155.674 416.192 155.332 414.911 154.973L414.641 155.936ZM422.374 157.93C423.689 158.239 424.993 158.53 426.284 158.803L426.49 157.824C425.207 157.553 423.911 157.264 422.603 156.956L422.374 157.93ZM430.183 159.578C431.522 159.828 432.848 160.057 434.16 160.267L434.318 159.28C433.014 159.071 431.697 158.843 430.366 158.595L430.183 159.578ZM438.069 160.841C439.427 161.022 440.77 161.181 442.097 161.319L442.201 160.324C440.883 160.187 439.55 160.029 438.201 159.85L438.069 160.841ZM446.035 161.671C447.401 161.773 448.751 161.852 450.084 161.909L450.126 160.91C448.804 160.853 447.465 160.775 446.109 160.674L446.035 161.671ZM454.041 162.013C455.411 162.026 456.762 162.015 458.095 161.98L458.069 160.981C456.748 161.015 455.409 161.026 454.051 161.013L454.041 162.013ZM462.06 161.805C463.424 161.719 464.768 161.608 466.092 161.473L465.99 160.478C464.679 160.612 463.348 160.722 461.997 160.807L462.06 161.805ZM470.054 160.984C471.398 160.79 472.721 160.57 474.021 160.324L473.835 159.341C472.549 159.585 471.241 159.803 469.911 159.995L470.054 160.984ZM477.949 159.488C479.26 159.178 480.547 158.84 481.81 158.477L481.534 157.516C480.286 157.875 479.014 158.208 477.718 158.515L477.949 159.488ZM485.662 157.263C486.94 156.824 488.191 156.358 489.416 155.865L489.043 154.937C487.834 155.424 486.599 155.884 485.338 156.317L485.662 157.263ZM493.098 154.268C494.327 153.694 495.528 153.093 496.7 152.464L496.228 151.583C495.072 152.202 493.888 152.796 492.675 153.362L493.098 154.268ZM500.18 150.468C501.331 149.764 502.451 149.032 503.541 148.274L502.97 147.453C501.896 148.2 500.792 148.921 499.658 149.615L500.18 150.468ZM506.779 145.877C507.839 145.043 508.866 144.183 509.861 143.299L509.197 142.551C508.217 143.422 507.205 144.27 506.161 145.092L506.779 145.877ZM512.78 140.544C513.732 139.589 514.651 138.611 515.536 137.611L514.787 136.948C513.915 137.934 513.01 138.897 512.072 139.837L512.78 140.544ZM518.11 134.52C518.939 133.462 519.734 132.384 520.494 131.286L519.672 130.716C518.923 131.798 518.14 132.861 517.323 133.903L518.11 134.52ZM522.685 127.918C523.384 126.772 524.049 125.607 524.68 124.426L523.798 123.955C523.176 125.119 522.521 126.267 521.831 127.397L522.685 127.918ZM526.473 120.829C527.037 119.612 527.566 118.382 528.062 117.138L527.133 116.768C526.644 117.995 526.122 119.209 525.565 120.408L526.473 120.829ZM529.447 113.367C529.875 112.097 530.268 110.816 530.628 109.526L529.665 109.258C529.31 110.531 528.921 111.795 528.499 113.048L529.447 113.367ZM531.605 105.629C531.897 104.322 532.154 103.008 532.378 101.688L531.392 101.52C531.171 102.823 530.917 104.121 530.629 105.412L531.605 105.629ZM532.95 97.712C533.106 96.3817 533.23 95.0479 533.319 93.7123L532.321 93.6453C532.233 94.9642 532.111 96.2813 531.956 97.5949L532.95 97.712ZM533.488 89.6991C533.511 88.3597 533.501 87.0203 533.457 85.6829L532.458 85.7155C532.501 87.0364 532.511 88.3591 532.488 89.682L533.488 89.6991ZM533.226 81.6739C533.116 80.3383 532.973 79.0065 532.796 77.6804L531.805 77.8123C531.979 79.1219 532.121 80.4371 532.23 81.7561L533.226 81.6739ZM532.166 73.7127C532.045 73.0546 531.915 72.3983 531.777 71.7442L530.799 71.9507C530.935 72.5965 531.063 73.2444 531.183 73.8943L532.166 73.7127ZM531.777 71.7442C531.642 71.1023 531.486 70.458 531.311 69.8115L530.346 70.073C530.516 70.702 530.667 71.328 530.799 71.9507L531.777 71.7442ZM530.077 66.0262C529.617 64.8139 529.096 63.5961 528.517 62.3749L527.613 62.8031C528.181 64.002 528.692 65.1952 529.142 66.3807L530.077 66.0262ZM526.692 58.8424C526.061 57.7114 525.384 56.5789 524.667 55.4466L523.822 55.9818C524.53 57.0995 525.197 58.2161 525.819 59.3298L526.692 58.8424ZM522.469 52.1575C521.72 51.0925 520.939 50.0288 520.127 48.9678L519.333 49.5756C520.137 50.6264 520.91 51.679 521.65 52.7323L522.469 52.1575ZM517.665 45.8709C516.836 44.8648 515.981 43.8624 515.104 42.8648L514.353 43.5249C515.224 44.515 516.071 45.5094 516.893 46.5068L517.665 45.8709ZM512.456 39.9386C511.566 38.9816 510.656 38.0301 509.73 37.0853L509.016 37.7853C509.936 38.7242 510.84 39.6695 511.724 40.62L512.456 39.9386ZM506.934 34.3004C505.994 33.3859 505.04 32.4788 504.075 31.5802L503.394 32.312C504.354 33.2059 505.302 34.1079 506.236 35.0171L506.934 34.3004ZM501.161 28.9217C500.18 28.0455 499.191 27.1787 498.194 26.3222L497.543 27.0806C498.534 27.933 499.519 28.7956 500.494 29.6673L501.161 28.9217ZM495.18 23.7799C494.165 22.939 493.144 22.1096 492.121 21.2928L491.497 22.0742C492.516 22.8875 493.532 23.7131 494.543 24.5502L495.18 23.7799ZM489.018 18.8584C487.969 18.0503 486.919 17.2563 485.872 16.4776L485.276 17.2801C486.318 18.0554 487.363 18.8459 488.407 19.6506L489.018 18.8584ZM482.687 14.151C481.607 13.3761 480.531 12.6188 479.463 11.8804L478.895 12.7029C479.958 13.438 481.029 14.192 482.104 14.9636L482.687 14.151ZM476.203 9.66875C475.09 8.92812 473.988 8.21016 472.901 7.51635L472.363 8.35932C473.444 9.04967 474.541 9.76417 475.649 10.5014L476.203 9.66875ZM469.547 5.42372C468.394 4.72109 467.263 4.04921 466.157 3.41004L465.657 4.27576C466.755 4.91091 467.88 5.57884 469.027 6.27762L469.547 5.42372ZM462.713 1.47884C462.126 1.16043 461.548 0.852951 460.981 0.556758L460.518 1.44324C461.081 1.7369 461.654 2.04189 462.236 2.35789L462.713 1.47884Z" fill="#9E9E9E"/>
</svg>
