<svg width="6" height="114" viewBox="0 0 6 114" fill="none" xmlns="http://www.w3.org/2000/svg">
<path opacity="0.4" d="M3 114L5.88675 109H0.113249L3 114ZM2.5 0V2.03571H3.5V0H2.5ZM2.5 6.10714V10.1786H3.5V6.10714H2.5ZM2.5 14.25V18.3214H3.5V14.25H2.5ZM2.5 22.3929V26.4643H3.5V22.3929H2.5ZM2.5 30.5357V34.6071H3.5V30.5357H2.5ZM2.5 38.6786V42.75H3.5V38.6786H2.5ZM2.5 46.8214V50.8929H3.5V46.8214H2.5ZM2.5 54.9643V59.0357H3.5V54.9643H2.5ZM2.5 63.1072V67.1786H3.5V63.1072H2.5ZM2.5 71.25V75.3214H3.5V71.25H2.5ZM2.5 79.3929V83.4643H3.5V79.3929H2.5ZM2.5 87.5357V91.6071H3.5V87.5357H2.5ZM2.5 95.6786V99.75H3.5V95.6786H2.5ZM2.5 103.821V107.893H3.5V103.821H2.5Z" fill="#9E9E9E"/>
</svg>
