<svg width="352" height="134" viewBox="0 0 352 134" fill="none" xmlns="http://www.w3.org/2000/svg">
<path opacity="0.4" d="M114 17L113.987 16.5002L114 17ZM312.5 131.5L317.907 133.525L316.957 127.83L312.5 131.5ZM0.38947 1.48763C1.03131 1.63311 1.69464 1.78219 2.37846 1.93456L2.59595 0.958497C1.91328 0.806381 1.25114 0.657575 0.61053 0.51237L0.38947 1.48763ZM6.3824 2.81325C7.66911 3.09156 9.00977 3.37786 10.3994 3.67069L10.6056 2.69218C9.21766 2.39971 7.87874 2.11378 6.59381 1.83585L6.3824 2.81325ZM14.4285 4.5094C15.7324 4.77757 17.0708 5.04978 18.4404 5.32504L18.6374 4.34464C17.2693 4.06968 15.9323 3.79777 14.63 3.5299L14.4285 4.5094ZM22.4636 6.12443C23.7838 6.38379 25.1279 6.64493 26.4933 6.90708L26.6819 5.92502C25.3179 5.66314 23.9752 5.40227 22.6563 5.14319L22.4636 6.12443ZM30.5273 7.67269C31.8571 7.92212 33.2036 8.17177 34.5644 8.42096L34.7445 7.43732C33.3851 7.18839 32.0401 6.939 30.7117 6.68983L30.5273 7.67269ZM38.6042 9.15158C39.9411 9.39031 41.2893 9.62802 42.6468 9.86409L42.8181 8.87888C41.4622 8.64307 40.1155 8.40563 38.78 8.16715L38.6042 9.15158ZM46.6921 10.5579C48.0353 10.785 49.3854 11.01 50.7404 11.2323L50.9023 10.2455C49.5489 10.0235 48.2004 9.79876 46.8588 9.57191L46.6921 10.5579ZM54.792 11.8864C56.1413 12.1006 57.4936 12.3116 58.847 12.5189L58.9984 11.5305C57.6469 11.3234 56.2964 11.1127 54.9488 10.8987L54.792 11.8864ZM62.9056 13.1287C64.2611 13.3282 65.6158 13.5235 66.968 13.714L67.1074 12.7237C65.7574 12.5336 64.4048 12.3386 63.0513 12.1393L62.9056 13.1287ZM71.0341 14.2729C72.3961 14.4553 73.7536 14.6323 75.1045 14.8032L75.23 13.8111C73.8816 13.6405 72.5266 13.4639 71.1669 13.2817L71.0341 14.2729ZM79.1801 15.3023C80.55 15.4643 81.9109 15.6194 83.2609 15.7668L83.3695 14.7727C82.0226 14.6256 80.6646 14.4709 79.2976 14.3092L79.1801 15.3023ZM87.3473 16.1928C88.7262 16.3294 90.091 16.4571 91.4393 16.5752L91.5265 15.579C90.1823 15.4612 88.8213 15.3339 87.4458 15.1976L87.3473 16.1928ZM95.5367 16.9078C96.9261 17.0112 98.2942 17.103 99.6383 17.1825L99.6973 16.1842C98.3586 16.1051 96.9956 16.0136 95.6109 15.9105L95.5367 16.9078ZM103.742 17.3889C105.141 17.4461 106.508 17.4879 107.841 17.5129L107.86 16.5131C106.535 16.4882 105.175 16.4467 103.782 16.3897L103.742 17.3889ZM111.97 17.5353C112.663 17.529 113.344 17.5172 114.013 17.4998L113.987 16.5002C113.324 16.5174 112.649 16.5291 111.961 16.5353L111.97 17.5353ZM114.013 17.4998C114.655 17.4832 115.301 17.4626 115.951 17.4383L115.914 16.439C115.267 16.4632 114.625 16.4836 113.987 16.5002L114.013 17.4998ZM119.848 17.252C121.13 17.1779 122.427 17.091 123.739 16.9921L123.664 15.995C122.358 16.0934 121.066 16.18 119.79 16.2537L119.848 17.252ZM127.624 16.6691C128.904 16.5531 130.198 16.427 131.502 16.2918L131.399 15.2971C130.099 15.4319 128.81 15.5576 127.533 15.6732L127.624 16.6691ZM135.375 15.8678C136.655 15.7206 137.944 15.5657 139.243 15.4037L139.119 14.4114C137.823 14.573 136.537 14.7276 135.261 14.8743L135.375 15.8678ZM143.106 14.9056C144.385 14.7356 145.671 14.5596 146.965 14.3784L146.827 13.3881C145.535 13.569 144.25 13.7446 142.975 13.9143L143.106 14.9056ZM150.821 13.8269C152.098 13.6406 153.383 13.4498 154.674 13.2553L154.525 12.2665C153.235 12.4608 151.952 12.6513 150.677 12.8374L150.821 13.8269ZM158.524 12.6675C159.799 12.4704 161.081 12.2703 162.367 12.0678L162.211 11.08C160.926 11.2824 159.645 11.4823 158.371 11.6793L158.524 12.6675ZM166.209 11.4588C167.485 11.2553 168.766 11.05 170.05 10.8435L169.892 9.85616C168.607 10.0626 167.327 10.2678 166.051 10.4713L166.209 11.4588ZM173.892 10.2249C175.169 10.019 176.449 9.81249 177.733 9.60591L177.574 8.61861C176.29 8.82522 175.01 9.03175 173.732 9.23765L173.892 10.2249ZM181.575 8.9893C182.853 8.78483 184.134 8.58083 185.417 8.37783L185.261 7.39012C183.977 7.59322 182.696 7.79731 181.417 8.00185L181.575 8.9893ZM189.259 7.77441C190.538 7.57501 191.82 7.37713 193.102 7.18129L192.951 6.19275C191.667 6.38876 190.385 6.58679 189.105 6.78633L189.259 7.77441ZM196.947 6.60111C198.229 6.41019 199.512 6.22184 200.795 6.03657L200.652 5.04684C199.367 5.23234 198.083 5.4209 196.8 5.61202L196.947 6.60111ZM204.644 5.49043C205.928 5.31166 207.212 5.1365 208.496 4.96548L208.363 3.97425C207.078 4.14554 205.792 4.32096 204.506 4.49998L204.644 5.49043ZM212.35 4.46444C213.638 4.30149 214.924 4.14323 216.209 3.99022L216.091 2.99724C214.803 3.15056 213.514 3.30911 212.225 3.47236L212.35 4.46444ZM220.071 3.54603C221.361 3.40304 222.649 3.2659 223.935 3.13515L223.834 2.14028C222.545 2.27134 221.254 2.4088 219.96 2.55212L220.071 3.54603ZM227.802 2.76102C229.095 2.6425 230.385 2.53106 231.672 2.42726L231.591 1.4305C230.301 1.5346 229.008 1.64636 227.711 1.76519L227.802 2.76102ZM235.544 2.13774C236.84 2.04865 238.133 1.96799 239.421 1.89634L239.366 0.89788C238.073 0.96978 236.776 1.05071 235.475 1.14009L235.544 2.13774ZM243.302 1.70774C244.601 1.65398 245.895 1.61013 247.183 1.57682L247.157 0.577152C245.864 0.610608 244.565 0.654629 243.26 0.708597L243.302 1.70774ZM251.065 1.50874C251.712 1.50294 252.357 1.5 253 1.5V0.5C252.354 0.5 251.706 0.502954 251.056 0.50878L251.065 1.50874ZM253 1.5C253.67 1.5 254.342 1.50586 255.014 1.51757L255.031 0.517718C254.353 0.505912 253.676 0.5 253 0.5V1.5ZM259.049 1.65714C260.389 1.72638 261.733 1.81843 263.077 1.93315L263.162 0.936765C261.806 0.821104 260.452 0.728289 259.101 0.65847L259.049 1.65714ZM267.095 2.34275C268.429 2.50099 269.763 2.68135 271.096 2.88369L271.246 1.89501C269.903 1.69105 268.557 1.50923 267.212 1.34971L267.095 2.34275ZM275.078 3.55424C276.401 3.799 277.721 4.06536 279.036 4.3532L279.25 3.3763C277.924 3.08615 276.593 2.81766 275.26 2.57094L275.078 3.55424ZM282.966 5.27983C284.271 5.61002 285.571 5.96149 286.864 6.33409L287.141 5.37319C285.837 4.99755 284.527 4.64324 283.211 4.31038L282.966 5.27983ZM290.724 7.5162C292.006 7.93201 293.279 8.36892 294.543 8.82678L294.884 7.88656C293.609 7.42484 292.325 6.98428 291.033 6.56502L290.724 7.5162ZM298.315 10.2668C299.566 10.7694 300.805 11.2931 302.033 11.8376L302.439 10.9235C301.2 10.3741 299.949 9.84588 298.688 9.33891L298.315 10.2668ZM305.692 13.5408C306.904 14.1323 308.102 14.7448 309.284 15.3783L309.756 14.4968C308.563 13.8573 307.353 13.239 306.13 12.6421L305.692 13.5408ZM312.802 17.3521C313.965 18.035 315.111 18.7391 316.238 19.4643L316.779 18.6234C315.641 17.8907 314.483 17.1794 313.309 16.4897L312.802 17.3521ZM319.582 21.7173C320.684 22.4944 321.765 23.293 322.824 24.1129L323.436 23.3222C322.365 22.4931 321.272 21.6857 320.158 20.9001L319.582 21.7173ZM325.952 26.6529C326.978 27.5266 327.98 28.4218 328.956 29.3385L329.64 28.6097C328.653 27.6816 327.639 26.7756 326.601 25.8916L325.952 26.6529ZM331.82 32.1701C332.753 33.1406 333.657 34.133 334.532 35.1469L335.289 34.4936C334.402 33.4659 333.486 32.4604 332.541 31.4772L331.82 32.1701ZM337.076 38.2669C337.895 39.3316 338.683 40.4181 339.437 41.526L340.264 40.9633C339.499 39.839 338.7 38.7368 337.869 37.657L337.076 38.2669ZM341.601 44.9183C342.286 46.0695 342.937 47.242 343.551 48.4358L344.441 47.9783C343.817 46.7658 343.156 45.5752 342.46 44.4065L341.601 44.9183ZM345.277 52.0681C345.811 53.2924 346.308 54.5374 346.765 55.8029L347.706 55.4629C347.241 54.1769 346.736 52.9119 346.193 51.6681L345.277 52.0681ZM348.009 59.6256C348.379 60.9043 348.711 62.2027 349.001 63.5205L349.978 63.305C349.682 61.9661 349.346 60.6468 348.969 59.3474L348.009 59.6256ZM349.741 67.471C349.943 68.7827 350.107 70.1126 350.229 71.4605L351.225 71.3701C351.101 70.0015 350.935 68.6508 350.729 67.3184L349.741 67.471ZM350.47 75.4736C350.49 76.1448 350.5 76.8203 350.5 77.5H351.5C351.5 76.8104 351.49 76.125 351.469 75.4438L350.47 75.4736ZM350.5 77.5C350.5 78.1809 350.492 78.8539 350.477 79.5189L351.477 79.542C351.492 78.8692 351.5 78.1886 351.5 77.5H350.5ZM350.288 83.5106C350.191 84.8692 350.06 86.1922 349.898 87.4803L350.89 87.6049C351.054 86.299 351.187 84.9584 351.286 83.5824L350.288 83.5106ZM349.287 91.4312C349.039 92.7749 348.756 94.0769 348.44 95.3385L349.41 95.5813C349.731 94.2992 350.019 92.9767 350.271 91.6128L349.287 91.4312ZM347.345 99.1673C346.926 100.466 346.471 101.716 345.983 102.92L346.91 103.295C347.407 102.069 347.87 100.796 348.297 99.4747L347.345 99.1673ZM344.351 106.55C343.745 107.77 343.105 108.935 342.435 110.048L343.292 110.563C343.975 109.427 344.629 108.239 345.246 106.995L344.351 106.55ZM340.244 113.367C339.45 114.468 338.626 115.508 337.78 116.49L338.537 117.143C339.402 116.139 340.244 115.077 341.055 113.953L340.244 113.367ZM335.05 119.391C334.077 120.338 333.084 121.22 332.079 122.038L332.71 122.814C333.737 121.977 334.753 121.076 335.748 120.107L335.05 119.391ZM328.886 124.412C327.755 125.176 326.621 125.868 325.495 126.49L325.979 127.365C327.13 126.729 328.29 126.022 329.446 125.24L328.886 124.412ZM321.929 128.251C320.656 128.808 319.411 129.278 318.212 129.667L318.52 130.618C319.75 130.219 321.026 129.738 322.33 129.168L321.929 128.251Z" fill="#9E9E9E"/>
</svg>
