<svg width="24" height="24" viewBox="0 0 24 24" fill="none" xmlns="http://www.w3.org/2000/svg">
    <g clip-path="url(#clip0)">
        <path d="M23.7161 0.284033C23.3375 -0.094576 22.7236 -0.094576 22.345 0.284033L0.283957 22.345C-0.0946523 22.7237 -0.0946523 23.3375 0.283957 23.7161C0.473238 23.9055 0.721395 24.0001 0.969504 24.0001C1.21761 24.0001 1.46572 23.9054 1.65505 23.716L23.7161 1.65503C24.0946 1.27647 24.0946 0.662643 23.7161 0.284033Z"
              fill="#448AFF"/>
        <path d="M23.716 22.345L1.65496 0.283988C1.27639 -0.0946218 0.66252 -0.0946218 0.283957 0.283988C-0.0946524 0.66255 -0.0946524 1.27638 0.283957 1.65499L22.345 23.716C22.5343 23.9054 22.7825 24 23.0306 24C23.2787 24 23.5268 23.9054 23.7161 23.7161C24.0946 23.3374 24.0946 22.7236 23.716 22.345Z"
              fill="#448AFF"/>
    </g>
    <defs>
        <clipPath id="clip0">
            <rect width="24" height="24" fill="white"/>
        </clipPath>
    </defs>
</svg>
