<svg width="23" height="24" viewBox="0 0 23 24" fill="none" xmlns="http://www.w3.org/2000/svg">
    <path d="M21.9124 12.2352C21.9124 18.1351 17.1297 22.9177 11.2299 22.9177C5.33005 22.9177 0.547363 18.1351 0.547363 12.2352C0.547363 6.33542 5.33005 1.55273 11.2299 1.55273C17.1297 1.55273 21.9124 6.33542 21.9124 12.2352Z"
          fill="#448AFF" stroke="#448AFF"/>
    <path d="M16.3985 0.550781H13.7333C13.5703 0.550781 13.4217 0.638536 13.3385 0.778454C12.8824 1.54696 12.0446 2.06215 11.0861 2.06215C10.1277 2.06215 9.28989 1.54696 8.83384 0.778454C8.75062 0.638536 8.60181 0.550781 8.43903 0.550781H5.77378C5.52168 0.550781 5.31738 0.755076 5.31738 1.00717V21.728C7.03252 22.7989 9.0589 23.4179 11.2299 23.4179C13.2811 23.4179 15.2026 22.865 16.8549 21.9011V1.00717C16.8549 0.755076 16.6506 0.550781 16.3985 0.550781Z"
          fill="#FBC02D"/>
    <path opacity="0.3"
          d="M8.02468 1.00717C8.02468 0.763276 8.21624 0.564564 8.45718 0.552002C8.45107 0.551654 8.44514 0.550781 8.43903 0.550781H5.77378C5.52168 0.550781 5.31738 0.755076 5.31738 1.00717V21.728C6.12601 22.2329 7.00408 22.6373 7.93362 22.9238L8.02468 16.9218V1.00717Z"
          fill="white"/>
    <path d="M16.4097 16.4624H15.4854C15.3593 16.4624 15.2572 16.3602 15.2572 16.2342C15.2572 16.1081 15.3593 16.0059 15.4854 16.0059H16.4097C16.5357 16.0059 16.6379 16.1081 16.6379 16.2342C16.6379 16.3602 16.5357 16.4624 16.4097 16.4624ZM13.9791 16.4624H13.0548C12.9289 16.4624 12.8266 16.3602 12.8266 16.2342C12.8266 16.1081 12.9289 16.0059 13.0548 16.0059H13.9791C14.1053 16.0059 14.2073 16.1081 14.2073 16.2342C14.2073 16.3602 14.1053 16.4624 13.9791 16.4624ZM11.5487 16.4624H10.6244C10.4984 16.4624 10.3962 16.3602 10.3962 16.2342C10.3962 16.1081 10.4984 16.0059 10.6244 16.0059H11.5487C11.6747 16.0059 11.7769 16.1081 11.7769 16.2342C11.7769 16.3602 11.6747 16.4624 11.5487 16.4624ZM9.11826 16.4624H8.19396C8.06782 16.4624 7.96576 16.3602 7.96576 16.2342C7.96576 16.1081 8.06782 16.0059 8.19396 16.0059H9.11826C9.24422 16.0059 9.34646 16.1081 9.34646 16.2342C9.34646 16.3602 9.24422 16.4624 9.11826 16.4624ZM6.68765 16.4624H5.76335C5.63739 16.4624 5.53516 16.3602 5.53516 16.2342C5.53516 16.1081 5.63739 16.0059 5.76335 16.0059H6.68765C6.81379 16.0059 6.91585 16.1081 6.91585 16.2342C6.91585 16.3602 6.81379 16.4624 6.68765 16.4624Z"
          fill="white"/>
    <path d="M16.021 9.19883C16.021 11.8894 13.8399 14.0705 11.1495 14.0705C8.45896 14.0705 6.27783 11.8894 6.27783 9.19883C6.27783 6.50828 8.45896 4.32715 11.1495 4.32715C13.8399 4.32715 16.021 6.50828 16.021 9.19883Z"
          fill="white"/>
    <path d="M9.11975 8.31808C8.88893 8.08726 8.77344 7.80935 8.77344 7.48415C8.77344 7.15633 8.88893 6.87702 9.11975 6.64621C9.35038 6.41557 9.6283 6.30007 9.9535 6.30007C10.2787 6.30007 10.558 6.41557 10.7914 6.64621C11.0221 6.87702 11.1376 7.15633 11.1376 7.48415C11.1376 7.80935 11.0221 8.08726 10.7914 8.31808C10.558 8.54872 10.2787 8.66421 9.9535 8.66421C9.62848 8.66421 9.35038 8.54872 9.11975 8.31808ZM9.10387 11.8031C9.08032 11.7035 9.09602 11.6104 9.15115 11.5238L12.412 6.46529C12.4672 6.37876 12.5444 6.32502 12.6441 6.30409C12.7411 6.28315 12.8328 6.30007 12.9194 6.3552C13.0059 6.41033 13.0596 6.48762 13.0807 6.58724C13.1017 6.68703 13.0848 6.77862 13.0296 6.86271L9.77258 11.9251C9.71745 12.009 9.64017 12.0615 9.54055 12.0824C9.44093 12.106 9.34777 12.0903 9.26123 12.0352C9.17732 11.98 9.12498 11.9028 9.10387 11.8031ZM9.57195 7.09859C9.4671 7.20623 9.41476 7.33463 9.41476 7.48415C9.41476 7.63104 9.4671 7.75823 9.57195 7.8657C9.6768 7.97055 9.80416 8.02306 9.95368 8.02306C10.103 8.02306 10.2302 7.97055 10.3351 7.8657C10.4427 7.75823 10.4964 7.63104 10.4964 7.48415C10.4964 7.33463 10.4427 7.20623 10.3351 7.09859C10.2302 6.99373 10.103 6.94122 9.95368 6.94122C9.80416 6.94122 9.6768 6.99373 9.57195 7.09859ZM11.5113 11.7559C11.2805 11.5252 11.1651 11.2471 11.1651 10.9219C11.1651 10.5941 11.2805 10.315 11.5113 10.0842C11.7419 9.85334 12.0198 9.73802 12.345 9.73802C12.6702 9.73802 12.9483 9.85334 13.179 10.0842C13.4098 10.315 13.5251 10.5941 13.5251 10.9219C13.5251 11.2471 13.4098 11.5252 13.179 11.7559C12.9481 11.9867 12.6702 12.102 12.345 12.102C12.02 12.102 11.7419 11.9867 11.5113 11.7559ZM11.9637 10.5365C11.856 10.644 11.8023 10.7724 11.8023 10.9221C11.8023 11.0714 11.856 11.1988 11.9637 11.3035C12.0685 11.4085 12.1957 11.4608 12.3452 11.4608C12.4947 11.4608 12.6217 11.4085 12.7268 11.3035C12.8316 11.1988 12.8841 11.0714 12.8841 10.9221C12.8841 10.7726 12.8316 10.6442 12.7268 10.5365C12.6217 10.4317 12.4947 10.3792 12.3452 10.3792C12.1957 10.3792 12.0685 10.4317 11.9637 10.5365Z"
          fill="#FBC02D"/>
</svg>
