<svg width="44" height="60" viewBox="0 0 44 60" fill="none" xmlns="http://www.w3.org/2000/svg">
    <path d="M42.9076 51.8009C40.3133 46.4766 35.6435 43.294 29.9831 41.1852V37.8181C32.7661 37.6667 38.0137 36.9677 41.0916 33.8569C41.4807 33.4608 41.634 32.8899 41.4925 32.354C41.351 31.818 40.9265 31.3986 40.384 31.2472C40.3368 31.2355 36.2803 29.8607 37.0939 21.6586C37.4477 18.1634 37.3888 15.0177 36.9288 12.3148C36.3982 9.2157 35.3369 6.7807 33.7921 5.0797C32.1176 3.25054 29.936 2.31849 27.3063 2.31849C27.2001 2.31849 27.094 2.31849 26.9997 2.31849C25.9973 1.45634 23.8039 0 20.4431 0C18.8747 0 17.2356 0.314569 15.5611 0.955357L15.4903 0.978658C14.1696 1.46799 11.7168 2.38839 9.6413 5.11465C7.22386 8.28364 6.06821 12.9789 6.20972 19.0605C6.35123 25.1538 5.33709 28.1364 4.46445 29.5695C3.74512 30.7462 3.06116 30.9792 2.88427 31.0258C2.28286 30.9792 1.79938 31.2821 1.49277 31.7947C1.17438 32.319 1.2923 32.9831 1.64607 33.4957C1.78758 33.7055 2.61305 34.8006 4.60596 35.8608C6.88189 37.0725 9.72385 37.7599 13.0847 37.8997V41.1036C7.49509 43.2008 2.8489 46.4183 0.219197 51.8126C-0.01665 52.3019 -0.124582 52.7733 0.219293 53.6366C0.563169 54.5 1.64607 55.0612 1.64607 55.0612C1.64607 55.0612 11.2694 60 21.5634 60C31.8573 60 41.4807 55.0612 41.4807 55.0612C41.4807 55.0612 42.5634 54.5 42.9076 53.7253C43.2518 52.9506 43.1434 52.2903 42.9076 51.8009ZM4.35832 51.9038C6.90547 48.0358 10.7262 45.1115 15.1483 43.7017C15.8087 43.492 16.2568 42.8862 16.2568 42.2105V36.3502C16.2568 35.9307 16.0917 35.523 15.7851 35.2317C15.4785 34.9404 15.0776 34.7657 14.6531 34.7773C10.0658 34.8239 7.29462 33.787 5.7852 32.9016C5.89133 32.7967 6.00925 32.6918 6.12718 32.5753C8.45027 30.1869 9.54696 25.6199 9.39366 18.9906C9.08706 6.74575 14.3582 4.76513 16.5988 3.92628L16.6696 3.90298C17.9903 3.41365 19.2521 3.15734 20.4195 3.15734C23.462 3.15734 25.0186 4.81174 25.1483 4.96319C25.4785 5.37097 25.9855 5.56903 26.5162 5.52243C26.7756 5.49913 27.035 5.48748 27.2827 5.48748C28.9926 5.48748 30.3487 6.04671 31.41 7.21178C33.6506 9.65842 34.5704 14.8197 33.91 21.3674C33.2496 27.9733 35.3369 31.2821 37.1411 32.8899C34.7119 34.2181 31.2567 34.7191 28.6506 34.7191C28.5091 34.7191 28.4265 34.7191 28.4148 34.7191C27.9902 34.7074 27.5657 34.8705 27.2591 35.1618C26.9525 35.4531 26.7756 35.8608 26.7756 36.2919V42.3153C26.7756 43.0027 27.2237 43.5969 27.8841 43.8066C32.3652 45.2396 36.1977 48.129 38.7331 51.9271C38.7331 51.9271 32.3785 55.8315 21.5457 55.8315C10.7129 55.8315 4.35832 51.9271 4.35832 51.9271V51.9038Z"
          fill="white"/>
</svg>
