<svg width="28" height="28" viewBox="0 0 28 28" fill="none" xmlns="http://www.w3.org/2000/svg">
    <path d="M14.0204 17.9702C16.3087 17.9702 18.1638 16.1726 18.1638 13.9551C18.1638 11.7377 16.3087 9.94003 14.0204 9.94003C11.732 9.94003 9.87695 11.7377 9.87695 13.9551C9.87695 16.1726 11.732 17.9702 14.0204 17.9702Z"
          fill="white"/>
    <path d="M20.4334 14.1795C20.4334 17.6114 17.5621 20.3931 14.0202 20.3931C10.4783 20.3931 7.60701 17.6114 7.60701 14.1795C7.60701 13.5645 7.69982 12.9704 7.87168 12.4093H5.97656V21.125C5.97656 21.5764 6.3455 21.9451 6.79665 21.9451H21.1644C21.6159 21.9451 21.9851 21.5764 21.9851 21.125V12.4093H20.1688C20.3403 12.9704 20.4334 13.5645 20.4334 14.1795Z"
          fill="white"/>
    <path d="M18.7141 10.0573H21.046C21.5571 10.0573 21.9747 9.63969 21.9747 9.12868V6.90529C21.9747 6.39399 21.5571 5.97635 21.046 5.97635H18.7141C18.2028 5.97635 17.7852 6.39399 17.7852 6.90529V9.12868C17.7849 9.63941 18.2028 10.0573 18.7141 10.0573Z"
          fill="white"/>
    <path d="M14 0C6.26799 0 0 6.26799 0 14C0 21.732 6.26799 28 14 28C21.732 28 28 21.732 28 14C28 6.26799 21.732 0 14 0ZM21.6681 24.3166H6.33215C4.87501 24.3166 3.68368 23.2381 3.68368 21.6687V6.33187C3.68368 4.76186 4.87501 3.68368 6.33215 3.68368H21.6681C23.125 3.68368 24.3166 4.76186 24.3166 6.33187V21.6687C24.3166 23.2381 23.1247 24.3166 21.6681 24.3166Z"
          fill="white"/>
</svg>
