<svg width="29" height="28" viewBox="0 0 29 28" fill="none" xmlns="http://www.w3.org/2000/svg">
    <g clip-path="url(#clip0)">
        <path d="M14.3479 11.6029C15.6847 11.598 16.7495 10.5241 16.7446 9.18441C16.7397 7.84413 15.6727 6.7777 14.3353 6.77655C12.9867 6.77512 11.9097 7.86132 11.92 9.21362C11.93 10.5485 13.0068 11.6077 14.3479 11.6029Z"
              fill="white"/>
        <path d="M14.334 0C6.60197 0 0.333984 6.26828 0.333984 14C0.333984 21.7317 6.60197 28 14.334 28C22.066 28 28.334 21.7317 28.334 14C28.334 6.26828 22.066 0 14.334 0ZM14.354 4.25743C17.081 4.26488 19.2697 6.49543 19.2557 9.25246C19.2419 11.9459 17.0174 14.1289 14.295 14.1197C11.6004 14.1106 9.39052 11.8766 9.40656 9.1777C9.42174 6.44931 11.6328 4.24998 14.354 4.25743ZM19.8773 16.0572C19.2743 16.6763 18.5485 17.1243 17.7424 17.4368C16.9804 17.7321 16.1455 17.8808 15.3188 17.9799C15.444 18.1156 15.5027 18.1824 15.5806 18.2603C16.7023 19.388 17.8295 20.51 18.9475 21.6409C19.3284 22.0265 19.4078 22.5043 19.1981 22.952C18.9692 23.4418 18.4556 23.7638 17.9518 23.7291C17.6327 23.707 17.3838 23.5486 17.1629 23.3261C16.3162 22.4742 15.4534 21.6375 14.6244 20.7696C14.3824 20.5169 14.2667 20.565 14.0533 20.7845C13.2017 21.6615 12.336 22.5246 11.4655 23.3831C11.0745 23.7686 10.6093 23.8385 10.1556 23.618C9.67352 23.3848 9.36703 22.8924 9.39052 22.3971C9.40713 22.0631 9.57155 21.8071 9.80128 21.5785C10.9118 20.4702 12.0189 19.3585 13.1263 18.2477C13.1999 18.1741 13.2681 18.0959 13.375 17.9813C11.8645 17.8235 10.5025 17.4517 9.33638 16.5399C9.19144 16.4265 9.0422 16.3171 8.91043 16.1899C8.3997 15.6998 8.34843 15.138 8.75203 14.56C9.09777 14.065 9.67753 13.9327 10.2805 14.2171C10.3974 14.2718 10.5085 14.3412 10.6151 14.4145C12.788 15.9077 15.7734 15.9487 17.9549 14.4812C18.1709 14.3162 18.4021 14.1805 18.6699 14.112C19.1901 13.9779 19.6759 14.1696 19.9549 14.625C20.2743 15.1455 20.2706 15.6531 19.8773 16.0572Z"
              fill="white"/>
    </g>
    <defs>
        <clipPath id="clip0">
            <rect width="28" height="28" fill="white" transform="translate(0.333984)"/>
        </clipPath>
    </defs>
</svg>
