<svg width="32" height="33" viewBox="0 0 32 33" fill="none" xmlns="http://www.w3.org/2000/svg">
    <path d="M31.6156 3.26376C31.3172 3.0151 30.9065 2.9504 30.5461 3.09517L3.53068 13.9993C3.25745 14.1098 3.12549 14.4209 3.23594 14.6941C3.3464 14.9673 3.65751 15.0993 3.93074 14.9888L29.7385 4.57547L16.9365 19.6744C16.7461 19.8992 16.7739 20.2358 16.9987 20.4263C17.2234 20.6167 17.5601 20.5889 17.7505 20.3641L30.7461 5.03579L29.0093 13.754L27.2597 25.4449C27.2357 25.6084 27.1372 25.7517 26.993 25.8327C26.8547 25.9099 26.6881 25.9176 26.5433 25.8535L19.2691 22.9933L15.7784 21.5317C15.5068 21.4178 15.1942 21.5455 15.0802 21.8171C15.0685 21.8537 15.061 21.8914 15.0578 21.9297H15.045L13.3119 28.6219L10.8251 19.9352L23.7872 10.2804C23.9528 10.1716 24.0445 9.97994 24.0252 9.78266C24.0059 9.58538 23.8788 9.4151 23.6952 9.34046C23.5116 9.26583 23.3017 9.29914 23.1502 9.42698L10.1216 19.1271L0.730239 15.3254C0.457696 15.2173 0.149023 15.3494 0.0390684 15.6212C-0.0708863 15.893 0.059134 16.2025 0.330176 16.3144L9.77165 20.1347L12.2894 28.9243C12.4204 29.3783 12.8367 29.6903 13.3093 29.6887H13.3215C13.5791 29.6841 13.826 29.5848 14.0149 29.4097C14.0336 29.3985 14.0514 29.386 14.0683 29.3724L19.2243 24.1001L26.1373 26.8414C26.5816 27.0301 27.0884 27.0017 27.5087 26.7646C27.9419 26.5243 28.239 26.0964 28.3126 25.6065L30.0574 13.9375L31.9777 4.30342C32.0576 3.91661 31.9185 3.51718 31.6156 3.26376ZM14.8071 27.0947L15.9332 22.7542L17.6966 23.4946L18.1511 23.6749L14.8071 27.0947Z"
          fill="white"/>
</svg>
