<svg width="29" height="28" viewBox="0 0 29 28" fill="none" xmlns="http://www.w3.org/2000/svg">
    <g clip-path="url(#clip0)">
        <path d="M14.334 0C6.60226 0 0.333984 6.26799 0.333984 14C0.333984 21.732 6.60226 28 14.334 28C22.0657 28 28.334 21.732 28.334 14C28.334 6.26799 22.0657 0 14.334 0ZM21.4355 15.5141C22.0881 16.1515 22.7784 16.7513 23.3642 17.4545C23.6237 17.7656 23.8683 18.0873 24.0545 18.4491C24.3203 18.965 24.0803 19.5307 23.6185 19.5613L20.7504 19.5608C20.0096 19.6221 19.4201 19.3233 18.9231 18.8169C18.5264 18.4133 18.1583 17.9822 17.7762 17.5648C17.6201 17.3935 17.4557 17.2322 17.2597 17.1054C16.8687 16.851 16.529 16.9289 16.305 17.3374C16.0767 17.753 16.0246 18.2136 16.0028 18.6762C15.9716 19.3525 15.7676 19.5292 15.0891 19.561C13.6391 19.6289 12.2633 19.4089 10.9846 18.6779C9.85656 18.0331 8.98348 17.1231 8.22268 16.0928C6.74119 14.0842 5.60658 11.8797 4.58712 9.61195C4.35768 9.10122 4.52553 8.82795 5.08897 8.81735C6.02507 8.7993 6.96118 8.8016 7.89728 8.81649C8.27825 8.82251 8.53032 9.04049 8.6767 9.39998C9.18256 10.6446 9.80271 11.8287 10.5798 12.927C10.7869 13.2194 10.9983 13.511 11.2994 13.7176C11.6317 13.9456 11.8849 13.8702 12.0416 13.4993C12.1418 13.2635 12.1851 13.0115 12.2068 12.7588C12.2813 11.8935 12.2902 11.0284 12.1613 10.1665C12.0811 9.62713 11.7778 9.27881 11.2401 9.17684C10.9663 9.12499 11.0064 9.02359 11.1396 8.86719C11.3707 8.59679 11.5873 8.4295 12.0201 8.4295L15.2606 8.42893C15.7714 8.52919 15.8859 8.75834 15.9553 9.2728L15.9581 12.874C15.9521 13.0731 16.0581 13.6631 16.4156 13.7935C16.702 13.888 16.8911 13.6583 17.0624 13.477C17.8395 12.6523 18.3932 11.6789 18.889 10.6715C19.1079 10.2272 19.2966 9.76749 19.48 9.30689C19.6163 8.9663 19.8283 8.79873 20.2127 8.80446L23.3332 8.80818C23.4252 8.80818 23.5186 8.80904 23.6096 8.8248C24.1356 8.91474 24.2796 9.14103 24.1169 9.65406C23.8609 10.4601 23.3633 11.1315 22.8769 11.8047C22.3556 12.5254 21.7996 13.2209 21.2834 13.9447C20.8091 14.6064 20.8466 14.9395 21.4355 15.5141Z"
              fill="white"/>
    </g>
    <defs>
        <clipPath id="clip0">
            <rect width="28" height="28" fill="white" transform="translate(0.333984)"/>
        </clipPath>
    </defs>
</svg>
