<svg width="400" height="650" viewBox="0 0 400 650" fill="none" xmlns="http://www.w3.org/2000/svg">
    <path d="M0.000951992 0H400V650H0L0.000951992 0Z" fill="url(#paint0_linear)"/>
    <ellipse opacity="0.4" cx="101.8" cy="567.413" rx="22.7995" ry="22.4131" fill="#448AFF"/>
    <ellipse opacity="0.3" cx="179.046" cy="466.851" rx="7.34223" ry="6.95579" fill="#448AFF"/>
    <circle opacity="0.4" cx="63.888" cy="369.856" r="8.88796" fill="#448AFF"/>
    <circle opacity="0.4" cx="67.367" cy="292.183" r="6.18293" fill="#448AFF"/>
    <circle opacity="0.3" cx="213.438" cy="320.006" r="21.6402" fill="#448AFF"/>
    <path d="M132.402 259.213L135.254 251.781H137.998L133.047 263.578L132.598 264.467C131.947 265.626 130.892 266.205 129.434 266.205L128.418 266.146L128.438 264.193C128.594 264.219 128.87 264.232 129.268 264.232C129.971 264.232 130.465 263.933 130.752 263.334L131.26 262.133L126.396 251.781H129.092L132.402 259.213ZM148.389 261.82H147.188V266H144.814V255.434H147.188V259.652H148.232L151.152 255.434H154.082L150.264 260.492L154.404 266H151.318L148.389 261.82ZM162.021 266C161.917 265.798 161.826 265.469 161.748 265.014C160.993 265.801 160.068 266.195 158.975 266.195C157.913 266.195 157.048 265.893 156.377 265.287C155.706 264.682 155.371 263.933 155.371 263.041C155.371 261.915 155.788 261.052 156.621 260.453C157.461 259.848 158.659 259.545 160.215 259.545H161.67V258.852C161.67 258.305 161.517 257.868 161.211 257.543C160.905 257.211 160.439 257.045 159.814 257.045C159.274 257.045 158.831 257.182 158.486 257.455C158.141 257.722 157.969 258.064 157.969 258.48H155.596C155.596 257.901 155.788 257.361 156.172 256.859C156.556 256.352 157.077 255.954 157.734 255.668C158.398 255.382 159.137 255.238 159.951 255.238C161.188 255.238 162.174 255.551 162.91 256.176C163.646 256.794 164.023 257.667 164.043 258.793V263.559C164.043 264.509 164.176 265.268 164.443 265.834V266H162.021ZM159.414 264.291C159.883 264.291 160.322 264.177 160.732 263.949C161.149 263.721 161.462 263.415 161.67 263.031V261.039H160.391C159.512 261.039 158.851 261.192 158.408 261.498C157.965 261.804 157.744 262.237 157.744 262.797C157.744 263.253 157.894 263.617 158.193 263.891C158.499 264.158 158.906 264.291 159.414 264.291ZM175.83 261.752H174.57V266H172.197V261.752H170.947L168.516 266H165.605L169.111 260.502L165.791 255.434H168.691L171.084 259.584H172.197V255.434H174.57V259.584H175.693L178.096 255.434H180.996L177.686 260.473L181.211 266H178.262L175.83 261.752ZM182.725 264.105C183.382 263.37 183.822 262.673 184.043 262.016C184.271 261.352 184.408 260.505 184.453 259.477L184.59 255.434H191.924V264.105H193.389V269.145H191.025V266H184.248V269.145H181.846L181.855 264.105H182.725ZM185.508 264.105H189.561V257.475H186.895L186.826 259.496C186.735 261.436 186.296 262.973 185.508 264.105ZM194.639 260.619C194.639 259.584 194.844 258.653 195.254 257.826C195.664 256.993 196.24 256.355 196.982 255.912C197.725 255.463 198.577 255.238 199.541 255.238C200.967 255.238 202.122 255.697 203.008 256.615C203.9 257.533 204.382 258.751 204.453 260.268L204.463 260.824C204.463 261.866 204.261 262.797 203.857 263.617C203.46 264.438 202.887 265.072 202.139 265.521C201.396 265.971 200.537 266.195 199.561 266.195C198.07 266.195 196.875 265.701 195.977 264.711C195.085 263.715 194.639 262.39 194.639 260.736V260.619ZM197.012 260.824C197.012 261.911 197.236 262.764 197.686 263.383C198.135 263.995 198.76 264.301 199.561 264.301C200.361 264.301 200.983 263.988 201.426 263.363C201.875 262.738 202.1 261.824 202.1 260.619C202.1 259.551 201.868 258.705 201.406 258.08C200.951 257.455 200.329 257.143 199.541 257.143C198.766 257.143 198.151 257.452 197.695 258.07C197.24 258.682 197.012 259.6 197.012 260.824ZM213.506 257.348H208.916V266H206.553V255.434H213.506V257.348ZM214.209 260.619C214.209 259.584 214.414 258.653 214.824 257.826C215.234 256.993 215.811 256.355 216.553 255.912C217.295 255.463 218.148 255.238 219.111 255.238C220.537 255.238 221.693 255.697 222.578 256.615C223.47 257.533 223.952 258.751 224.023 260.268L224.033 260.824C224.033 261.866 223.831 262.797 223.428 263.617C223.031 264.438 222.458 265.072 221.709 265.521C220.967 265.971 220.107 266.195 219.131 266.195C217.64 266.195 216.445 265.701 215.547 264.711C214.655 263.715 214.209 262.39 214.209 260.736V260.619ZM216.582 260.824C216.582 261.911 216.807 262.764 217.256 263.383C217.705 263.995 218.33 264.301 219.131 264.301C219.932 264.301 220.553 263.988 220.996 263.363C221.445 262.738 221.67 261.824 221.67 260.619C221.67 259.551 221.439 258.705 220.977 258.08C220.521 257.455 219.899 257.143 219.111 257.143C218.337 257.143 217.721 257.452 217.266 258.07C216.81 258.682 216.582 259.6 216.582 260.824ZM235.361 264.301C235.954 264.301 236.445 264.128 236.836 263.783C237.227 263.438 237.435 263.012 237.461 262.504H239.697C239.671 263.161 239.466 263.777 239.082 264.35C238.698 264.916 238.177 265.365 237.52 265.697C236.862 266.029 236.152 266.195 235.391 266.195C233.913 266.195 232.741 265.717 231.875 264.76C231.009 263.803 230.576 262.481 230.576 260.795V260.551C230.576 258.943 231.006 257.657 231.865 256.693C232.725 255.723 233.896 255.238 235.381 255.238C236.637 255.238 237.66 255.606 238.447 256.342C239.242 257.071 239.658 258.031 239.697 259.223H237.461C237.435 258.617 237.227 258.119 236.836 257.729C236.452 257.338 235.96 257.143 235.361 257.143C234.593 257.143 234.001 257.423 233.584 257.982C233.167 258.536 232.956 259.379 232.949 260.512V260.893C232.949 262.038 233.154 262.895 233.564 263.461C233.981 264.021 234.58 264.301 235.361 264.301ZM241.67 266V255.434H245.957C247.402 255.434 248.503 255.688 249.258 256.195C250.013 256.697 250.391 257.419 250.391 258.363C250.391 258.852 250.238 259.291 249.932 259.682C249.632 260.066 249.186 260.362 248.594 260.57C249.284 260.714 249.831 261.003 250.234 261.439C250.638 261.876 250.84 262.39 250.84 262.982C250.84 263.965 250.475 264.714 249.746 265.229C249.023 265.743 247.982 266 246.621 266H241.67ZM244.043 261.498V264.125H246.641C247.858 264.125 248.467 263.689 248.467 262.816C248.467 261.938 247.848 261.498 246.611 261.498H244.043ZM244.043 259.799H245.996C247.344 259.799 248.018 259.402 248.018 258.607C248.018 257.774 247.38 257.344 246.104 257.318H244.043V259.799ZM252.451 260.619C252.451 259.584 252.656 258.653 253.066 257.826C253.477 256.993 254.053 256.355 254.795 255.912C255.537 255.463 256.39 255.238 257.354 255.238C258.779 255.238 259.935 255.697 260.82 256.615C261.712 257.533 262.194 258.751 262.266 260.268L262.275 260.824C262.275 261.866 262.074 262.797 261.67 263.617C261.273 264.438 260.7 265.072 259.951 265.521C259.209 265.971 258.35 266.195 257.373 266.195C255.882 266.195 254.688 265.701 253.789 264.711C252.897 263.715 252.451 262.39 252.451 260.736V260.619ZM254.824 260.824C254.824 261.911 255.049 262.764 255.498 263.383C255.947 263.995 256.572 264.301 257.373 264.301C258.174 264.301 258.796 263.988 259.238 263.363C259.688 262.738 259.912 261.824 259.912 260.619C259.912 259.551 259.681 258.705 259.219 258.08C258.763 257.455 258.141 257.143 257.354 257.143C256.579 257.143 255.964 257.452 255.508 258.07C255.052 258.682 254.824 259.6 254.824 260.824ZM272.744 255.434V266H270.381V262.123H268.164L265.908 266H263.447L265.938 261.732C265.286 261.459 264.785 261.068 264.434 260.561C264.089 260.053 263.916 259.47 263.916 258.812C263.916 257.829 264.294 257.025 265.049 256.4C265.811 255.769 266.836 255.447 268.125 255.434H272.744ZM266.289 258.871C266.289 259.314 266.452 259.675 266.777 259.955C267.109 260.229 267.533 260.365 268.047 260.365H270.381V257.318H268.193C267.614 257.318 267.152 257.465 266.807 257.758C266.462 258.051 266.289 258.422 266.289 258.871Z"
          fill="#448AFF"/>
    <path d="M93.4375 294.125V351H83.5938V302.094H66.1719L65.1562 324.086C64.7656 330.961 63.9193 336.299 62.6172 340.102C61.3411 343.878 59.4792 346.638 57.0312 348.383C54.5833 350.128 51.3021 351 47.1875 351H44.6875V343.109L46.25 342.992C48.5156 342.784 50.2604 341.99 51.4844 340.609C52.7344 339.229 53.6719 337.146 54.2969 334.359C54.9479 331.547 55.4036 327.419 55.6641 321.977L56.7578 294.125H93.4375ZM123.047 351.781C117.031 351.781 112.148 349.893 108.398 346.117C104.674 342.315 102.812 337.263 102.812 330.961V329.789C102.812 325.57 103.62 321.807 105.234 318.5C106.875 315.167 109.167 312.576 112.109 310.727C115.052 308.878 118.333 307.953 121.953 307.953C127.708 307.953 132.148 309.789 135.273 313.461C138.424 317.133 140 322.328 140 329.047V332.875H112.383C112.669 336.365 113.828 339.125 115.859 341.156C117.917 343.188 120.495 344.203 123.594 344.203C127.943 344.203 131.484 342.445 134.219 338.93L139.336 343.812C137.643 346.339 135.378 348.305 132.539 349.711C129.727 351.091 126.562 351.781 123.047 351.781ZM121.914 315.57C119.31 315.57 117.201 316.482 115.586 318.305C113.997 320.128 112.982 322.667 112.539 325.922H130.625V325.219C130.417 322.042 129.57 319.646 128.086 318.031C126.602 316.391 124.544 315.57 121.914 315.57ZM175.547 316.391H157.188V351H147.734V308.734H175.547V316.391ZM198.75 351.781C192.734 351.781 187.852 349.893 184.102 346.117C180.378 342.315 178.516 337.263 178.516 330.961V329.789C178.516 325.57 179.323 321.807 180.938 318.5C182.578 315.167 184.87 312.576 187.812 310.727C190.755 308.878 194.036 307.953 197.656 307.953C203.411 307.953 207.852 309.789 210.977 313.461C214.128 317.133 215.703 322.328 215.703 329.047V332.875H188.086C188.372 336.365 189.531 339.125 191.562 341.156C193.62 343.188 196.198 344.203 199.297 344.203C203.646 344.203 207.188 342.445 209.922 338.93L215.039 343.812C213.346 346.339 211.081 348.305 208.242 349.711C205.43 351.091 202.266 351.781 198.75 351.781ZM197.617 315.57C195.013 315.57 192.904 316.482 191.289 318.305C189.701 320.128 188.685 322.667 188.242 325.922H206.328V325.219C206.12 322.042 205.273 319.646 203.789 318.031C202.305 316.391 200.247 315.57 197.617 315.57ZM258.906 351H249.414V333.93H232.969V351H223.477V308.734H232.969V326.352H249.414V308.734H258.906V351ZM269.219 343.422C271.849 340.479 273.607 337.693 274.492 335.062C275.404 332.406 275.951 329.021 276.133 324.906L276.68 308.734H306.016V343.422H311.875V363.578H302.422V351H275.312V363.578H265.703L265.742 343.422H269.219ZM280.352 343.422H296.562V316.898H285.898L285.625 324.984C285.26 332.745 283.503 338.891 280.352 343.422ZM343.906 351C343.49 350.193 343.125 348.878 342.812 347.055C339.792 350.206 336.094 351.781 331.719 351.781C327.474 351.781 324.01 350.57 321.328 348.148C318.646 345.727 317.305 342.732 317.305 339.164C317.305 334.659 318.971 331.208 322.305 328.812C325.664 326.391 330.456 325.18 336.68 325.18H342.5V322.406C342.5 320.219 341.888 318.474 340.664 317.172C339.44 315.844 337.578 315.18 335.078 315.18C332.917 315.18 331.146 315.727 329.766 316.82C328.385 317.888 327.695 319.255 327.695 320.922H318.203C318.203 318.604 318.971 316.443 320.508 314.438C322.044 312.406 324.128 310.818 326.758 309.672C329.414 308.526 332.37 307.953 335.625 307.953C340.573 307.953 344.518 309.203 347.461 311.703C350.404 314.177 351.914 317.667 351.992 322.172V341.234C351.992 345.036 352.526 348.07 353.594 350.336V351H343.906ZM333.477 344.164C335.352 344.164 337.109 343.708 338.75 342.797C340.417 341.885 341.667 340.661 342.5 339.125V331.156H337.383C333.867 331.156 331.224 331.768 329.453 332.992C327.682 334.216 326.797 335.948 326.797 338.188C326.797 340.01 327.396 341.469 328.594 342.562C329.818 343.63 331.445 344.164 333.477 344.164Z"
          fill="#448AFF"/>
    <path d="M110.341 75.8773C152.523 60.273 155.493 18.5765 151.875 4.40592e-08L20 5.20681e-06C8.9543 5.63923e-06 2.71353e-06 8.95432 3.25262e-06 20L1.52588e-05 266C13.6986 259.266 38.3852 232.756 39.0055 183.157C39.7809 121.157 57.6149 95.3826 110.341 75.8773Z"
          fill="#5289FA"/>
    <path d="M104.383 72.4961C143.277 58.1252 146.327 17.1082 142.99 -1.52193e-05L20 -1.04043e-05C8.95432 -9.9719e-06 3.64083e-06 8.95431 1.94387e-05 20L7.62939e-05 247C12.6309 240.798 38.0355 216.975 38.6075 171.296C39.3224 114.197 55.7664 90.4597 104.383 72.4961Z"
          fill="#3C7BFC"/>
    <path d="M93.3507 67.2036C127.863 53.9321 130.013 15.7993 127.053 -1.52217e-05L20 -1.10307e-05C8.9543 -1.05983e-05 -3.11006e-06 8.9543 -2.57097e-06 20L7.62939e-06 229C11.208 223.273 34.4769 200.629 34.9845 158.445C35.6189 105.714 50.2105 83.7929 93.3507 67.2036Z"
          fill="#3375FC"/>
    <path d="M84.2265 62.2637C115.341 50.0149 117.869 14.582 115.2 1.52901e-05L-2.66858e-06 1.98001e-05L7.62939e-06 211C10.1047 205.714 31.1484 185.409 31.606 146.475C32.1779 97.8073 45.3331 77.5748 84.2265 62.2637Z"
          fill="#276DFC"/>
    <defs>
        <linearGradient id="paint0_linear" x1="200" y1="0" x2="200" y2="650" gradientUnits="userSpaceOnUse">
            <stop stop-color="#448AFF"/>
            <stop offset="1" stop-color="#285FEE"/>
        </linearGradient>
    </defs>
</svg>
