<svg width="535" height="520" viewBox="0 0 535 520" fill="none" xmlns="http://www.w3.org/2000/svg">
    <path d="M-88.5734 83.1006C-111.383 102.059 -157.028 99.3931 -177 95.6902V439.684C-169.975 464.123 -132.539 513 -38.9883 513C77.9498 513 118.031 424.502 255.216 430.427C447.612 438.736 530 336.004 530 253.801C530 190.352 431.656 105.688 329.594 116.796C227.531 127.905 150.674 12.7467 70.512 1.26789C-9.65051 -10.2109 -60.062 59.4024 -88.5734 83.1006Z"
          fill="url(#paint0_linear)"/>
    <path opacity="0.2"
          d="M-83.5734 90.1006C-106.383 109.059 -152.028 106.393 -172 102.69V446.684C-164.975 471.123 -127.539 520 -33.9883 520C82.9498 520 123.031 431.502 260.216 437.427C452.612 445.736 535 343.004 535 260.801C535 197.352 436.656 112.688 334.594 123.796C232.531 134.905 155.674 19.7467 75.512 8.26789C-4.65051 -3.21091 -55.062 66.4024 -83.5734 90.1006Z"
          fill="url(#paint1_linear)"/>
    <defs>
        <linearGradient id="paint0_linear" x1="176.5" y1="0" x2="176.5" y2="513" gradientUnits="userSpaceOnUse">
            <stop stop-color="#FFDB13"/>
            <stop offset="1" stop-color="#FAAC2B"/>
        </linearGradient>
        <linearGradient id="paint1_linear" x1="181.5" y1="7" x2="181.5" y2="520" gradientUnits="userSpaceOnUse">
            <stop stop-color="#FFDB13"/>
            <stop offset="1" stop-color="#FAAC2B"/>
        </linearGradient>
    </defs>
</svg>
