<svg width="28" height="28" viewBox="0 0 28 28" fill="none" xmlns="http://www.w3.org/2000/svg">
    <circle cx="14" cy="14" r="14" fill="white"/>
    <path d="M8.12033 18.5044L5.59961 21.7455L8.50867 21.3818L9.23595 23.9273L11.7814 20.6545L11.7931 20.6396C11.2891 20.1309 10.7371 19.6724 10.1451 19.2695C9.4963 18.9498 8.81814 18.6938 8.12033 18.5044Z"
          fill="#EF2648"/>
    <path d="M19.8061 18.5044C19.1083 18.6935 18.4301 18.9491 17.7814 19.268C17.1894 19.6706 16.6378 20.1295 16.1338 20.6382L18.6905 23.9273L19.4178 21.3818L22.3269 21.7455L19.8061 18.5044Z"
          fill="#EF2648"/>
    <path d="M21.5992 12.6546C21.5992 11.131 22.5486 9.33824 21.8366 8.10914C21.1025 6.83972 19.0501 6.77501 17.781 6.0408C16.5508 5.32772 15.4865 3.56372 13.9628 3.56372C12.4392 3.56372 11.3748 5.32808 10.1446 6.03973C8.87516 6.77429 6.82316 6.83972 6.089 8.10811C5.37699 9.33828 6.32644 11.131 6.32644 12.6546C6.32644 14.1782 5.37699 15.971 6.089 17.2001C6.82316 18.4695 8.87555 18.5342 10.1446 19.2685C11.3748 19.9815 12.4392 21.7455 13.9628 21.7455C15.4865 21.7455 16.5508 19.9812 17.781 19.2695C19.0505 18.535 21.1025 18.4695 21.8366 17.2011C22.5486 15.971 21.5992 14.1783 21.5992 12.6546Z"
          fill="#FFA511"/>
    <path d="M13.9631 18.8366C17.3772 18.8366 20.1449 16.0689 20.1449 12.6547C20.1449 9.2406 17.3772 6.4729 13.9631 6.4729C10.549 6.4729 7.78125 9.2406 7.78125 12.6547C7.78125 16.0689 10.549 18.8366 13.9631 18.8366Z"
          fill="#FFDC13"/>
    <path d="M17.5708 11.2001H15.0788L14.3086 8.8303C14.2461 8.63939 14.0403 8.53574 13.8497 8.5983C13.7399 8.6343 13.6537 8.72049 13.6177 8.8303L12.8469 11.2001H10.3549C10.1541 11.2001 9.99121 11.363 9.99121 11.5638C9.99121 11.6801 10.0469 11.7896 10.141 11.858L12.157 13.3231L11.3868 15.6932C11.3247 15.8842 11.4294 16.0893 11.6203 16.1514C11.7312 16.1874 11.8523 16.1682 11.9465 16.0998L13.9628 14.6347L15.9788 16.0994C16.1414 16.2175 16.3686 16.1815 16.4869 16.019C16.5552 15.9248 16.5745 15.8033 16.5385 15.6928L15.7683 13.3226L17.7843 11.8575C17.9465 11.7394 17.9821 11.5117 17.8639 11.3495C17.7956 11.2558 17.6868 11.2005 17.5708 11.2001Z"
          fill="#D50000"/>
    <path d="M21.8369 8.10908C21.8212 8.08179 21.8005 8.05853 21.7849 8.03271C21.2496 9.05161 20.615 10.0149 19.8903 10.9091C20.8554 14.1818 18.9845 17.6174 15.7118 18.5825C13.5612 19.2164 11.2358 18.6356 9.63578 17.0647C8.54526 17.2749 7.43723 17.3811 6.32669 17.3819C6.28744 17.3819 6.24926 17.3793 6.20996 17.3789C7.02705 18.4764 8.93722 18.5713 10.1449 19.2699C11.375 19.9811 12.4394 21.7455 13.9631 21.7455C15.4867 21.7455 16.5511 19.9812 17.7812 19.2695C19.0507 18.5349 21.1027 18.4695 21.8369 17.2011C22.5489 15.971 21.5994 14.1782 21.5994 12.6546C21.5994 11.131 22.5489 9.33818 21.8369 8.10908Z"
          fill="#F08015"/>
    <path d="M16.113 14.3815L16.5392 15.6928C16.6013 15.8837 16.4966 16.0888 16.3057 16.1509C16.1948 16.1869 16.0737 16.1677 15.9795 16.0993L14.7577 15.2113C13.1584 16.0957 11.4293 16.7215 9.63477 17.0659C12.0664 19.459 15.9773 19.4277 18.3701 16.9961C19.946 15.3946 20.5282 13.0637 19.8904 10.9092C18.8082 12.2455 17.5355 13.4153 16.113 14.3815Z"
          fill="#E5AF17"/>
    <path d="M16.5392 15.6929L16.1131 14.3816C15.6753 14.6787 15.2236 14.9554 14.7578 15.2114L15.9796 16.0994C16.1422 16.2176 16.3694 16.1816 16.4876 16.019C16.556 15.9249 16.5752 15.8038 16.5392 15.6929Z"
          fill="#B20D24"/>
    <path d="M19.2359 20.6546C20.1785 20.6553 21.1094 20.8666 21.9599 21.2728L19.8061 18.5037C19.1083 18.6927 18.4301 18.9484 17.7814 19.2673C17.1894 19.6698 16.6378 20.1287 16.1338 20.6375L16.5952 21.2313C17.4236 20.8509 18.3243 20.6542 19.2359 20.6546Z"
          fill="#B20D24"/>
    <path d="M10.1449 19.2695C9.49615 18.9506 8.81798 18.6949 8.12017 18.5059L8.00781 18.6513C9.23508 19.5375 9.96236 20.959 9.96308 22.4728C9.96236 22.6626 9.94999 22.8517 9.92673 23.04L11.7813 20.6546L11.7929 20.6397C11.2889 20.131 10.7369 19.6724 10.1449 19.2695Z"
          fill="#B20D24"/>
</svg>
