<svg width="22" height="21" viewBox="0 0 22 21" fill="none" xmlns="http://www.w3.org/2000/svg">
    <path d="M21.031 10.9331C21.031 16.4714 16.492 20.961 10.8929 20.961C7.94131 20.961 5.28432 19.7134 3.43174 17.7222C2.94512 17.1995 2.51435 16.6253 2.14773 16.0093C1.26261 14.5202 0.754883 12.7852 0.754883 10.9331C0.754883 5.39489 5.29383 0.905273 10.8929 0.905273C12.7658 0.905273 14.5199 1.40748 16.0249 2.28339C16.6476 2.64562 17.2278 3.0717 17.7562 3.55345C19.7693 5.38506 21.031 8.01359 21.031 10.9331Z"
          fill="white"/>
    <path d="M10.833 2.38992C15.5698 2.38992 19.4101 6.18845 19.4101 10.8738C19.4101 12.5057 18.9442 14.0297 18.1369 15.3234C17.7855 15.8871 17.3687 16.4067 16.8975 16.8728C16.5515 17.2155 16.1753 17.5293 15.7739 17.8096C15.2211 18.1955 14.6201 18.5185 13.9817 18.7677C13.0378 19.1366 12.0115 19.3443 10.9384 19.3568C10.9032 19.3577 10.8681 19.3577 10.833 19.3577C6.09614 19.3577 2.25586 15.5596 2.25586 10.8738C2.25586 10.839 2.25586 10.8038 2.25676 10.7691C2.26937 9.70758 2.47977 8.69288 2.85235 7.75929C3.10465 7.12784 3.43083 6.53337 3.82098 5.98658C4.10482 5.58953 4.42153 5.21787 4.76799 4.87519C5.23879 4.40906 5.76455 3.99685 6.33447 3.64926C7.64234 2.8507 9.18314 2.38992 10.833 2.38992Z"
          fill="#FFD53F"/>
    <path d="M11.0076 19.2796V2.45532C8.11247 2.45532 3.0459 4.28094 3.0459 10.8675C3.0459 17.454 8.11247 19.1603 11.0076 19.2796Z"
          fill="#FFC700"/>
    <path d="M19.7694 10.8738C19.7694 15.5591 15.9291 19.3576 11.1923 19.3576C11.0297 19.3576 10.8684 19.3532 10.708 19.3443C15.2196 19.0961 18.8003 15.3982 18.8003 10.8738C18.8003 6.3493 15.2196 2.65148 10.708 2.40326C10.8684 2.39435 11.0297 2.38989 11.1923 2.38989C15.9291 2.38989 19.7694 6.18843 19.7694 10.8738Z"
          fill="#FBC02D"/>
    <path d="M6.23828 5.05493C6.23828 5.05493 6.34053 5.44238 6.49879 5.59891C6.65704 5.75544 7.04874 5.85658 7.04874 5.85658C7.04874 5.85658 6.65704 5.95772 6.49879 6.11425C6.34053 6.27079 6.23828 6.65823 6.23828 6.65823C6.23828 6.65823 6.13603 6.27079 5.97778 6.11425C5.81952 5.95772 5.42782 5.85658 5.42782 5.85658C5.42782 5.85658 5.81952 5.75544 5.97778 5.59891C6.13603 5.44238 6.23828 5.05493 6.23828 5.05493Z"
          fill="white"/>
    <path d="M5.31055 6.36035C5.31055 6.36035 5.45451 6.90583 5.67731 7.12621C5.90011 7.34659 6.45159 7.48899 6.45159 7.48899C6.45159 7.48899 5.90011 7.63139 5.67731 7.85177C5.45451 8.07215 5.31055 8.61763 5.31055 8.61763C5.31055 8.61763 5.16659 8.07215 4.94378 7.85177C4.72098 7.63139 4.16951 7.48899 4.16951 7.48899C4.16951 7.48899 4.72098 7.34659 4.94378 7.12621C5.16659 6.90583 5.31055 6.36035 5.31055 6.36035Z"
          fill="white"/>
    <path d="M6.1091 10.4764C6.1091 10.4764 6.60008 11.1899 7.62913 11.7938C7.62913 11.7938 6.88385 5.56349 11.7399 4.48145C10.4957 8.99797 13.3224 10.2717 14.3528 7.88553C16.0736 10.158 14.767 12.1405 14.767 12.1405C15.4726 12.2411 16.0653 11.4786 16.0653 11.4786C16.0706 11.5726 16.0736 11.6671 16.0736 11.7624C16.0736 14.5301 13.8052 16.7738 11.007 16.7738C8.20881 16.7738 5.94043 14.5301 5.94043 11.7623C5.94043 11.3178 5.99927 10.8868 6.1091 10.4764Z"
          fill="#448AFF"/>
    <path opacity="0.2"
          d="M16.0652 11.4786C16.0652 11.4786 15.4725 12.2411 14.7669 12.1405C14.7669 12.1405 16.0734 10.158 14.3527 7.88553C13.3223 10.2717 10.4956 8.99797 11.7397 4.48145C11.4796 4.5394 11.2357 4.61222 11.0068 4.69795V16.7738C13.805 16.7738 16.0734 14.5301 16.0734 11.7623C16.0734 11.6671 16.0705 11.5726 16.0652 11.4786Z"
          fill="#000051"/>
    <path d="M8.83594 14.576C8.83594 15.7898 9.83077 16.7738 11.0579 16.7738C12.2851 16.7738 13.2799 15.7898 13.2799 14.576C13.2799 13.9263 12.9949 13.3424 12.5418 12.9401C11.6828 14.0945 10.4585 12.3433 11.4126 11.0645C11.4126 11.0645 8.83594 11.3838 8.83594 14.576Z"
          fill="#000051"/>
    <path opacity="0.4"
          d="M13.2794 14.576C13.2794 15.7898 12.2846 16.7738 11.0574 16.7738C11.0405 16.7738 11.0237 16.7736 11.0068 16.7732V11.1651C11.2499 11.0846 11.4121 11.0645 11.4121 11.0645C10.458 12.3433 11.6823 14.0945 12.5414 12.9401C12.9945 13.3424 13.2794 13.9263 13.2794 14.576Z"
          fill="#448AFF"/>
</svg>
