<svg width="24" height="24" viewBox="0 0 24 24" fill="none" xmlns="http://www.w3.org/2000/svg">
    <path d="M24 12C24 18.6274 18.6274 24 12 24C8.50629 24 5.36131 22.5071 3.16849 20.1242C2.59249 19.4988 2.08261 18.8116 1.64865 18.0744C0.60098 16.2926 0 14.2163 0 12C0 5.37257 5.37257 0 12 0C14.2168 0 16.2931 0.60098 18.0744 1.64914C18.8116 2.08261 19.4983 2.59249 20.1238 3.16898C22.5066 5.36082 24 8.50629 24 12Z"
          fill="white"/>
    <path d="M11.9287 1.77656C17.5355 1.77656 22.0811 6.32214 22.0811 11.9289C22.0811 13.8818 21.5297 15.7055 20.5741 17.2536C20.1581 17.9282 19.6649 18.55 19.1071 19.1078C18.6975 19.5179 18.2522 19.8933 17.7771 20.2287C17.1228 20.6905 16.4114 21.0772 15.6558 21.3753C14.5386 21.8168 13.3238 22.0653 12.0535 22.0802C12.0119 22.0813 11.9703 22.0813 11.9287 22.0813C6.32195 22.0813 1.77637 17.5362 1.77637 11.9289C1.77637 11.8873 1.77637 11.8452 1.77743 11.8036C1.79236 10.5334 2.0414 9.31911 2.48241 8.20191C2.78105 7.44627 3.16713 6.73489 3.62894 6.08057C3.9649 5.60543 4.33979 5.16068 4.74987 4.7506C5.30714 4.1928 5.92946 3.69952 6.60405 3.28358C8.15213 2.32796 9.97591 1.77656 11.9287 1.77656Z"
          fill="#FFD53F"/>
    <path d="M12.1354 21.9881V1.85498C8.70852 1.85498 2.71143 4.03963 2.71143 11.9215C2.71143 19.8034 8.70852 21.8453 12.1354 21.9881Z"
          fill="#FFC700"/>
    <path d="M22.5074 11.929C22.5074 17.5358 17.9618 22.0814 12.355 22.0814C12.1625 22.0814 11.9716 22.076 11.7817 22.0654C17.1219 21.7683 21.3603 17.3433 21.3603 11.929C21.3603 6.51471 17.1219 2.08964 11.7817 1.79261C11.9716 1.78194 12.1625 1.77661 12.355 1.77661C17.9618 1.77661 22.5074 6.3222 22.5074 11.929Z"
          fill="#FBC02D"/>
    <path d="M6.49072 4.96582C6.49072 4.96582 6.61176 5.42946 6.79907 5.61678C6.98639 5.8041 7.45003 5.92513 7.45003 5.92513C7.45003 5.92513 6.98639 6.04616 6.79907 6.23348C6.61176 6.42079 6.49072 6.88444 6.49072 6.88444C6.49072 6.88444 6.36969 6.42079 6.18237 6.23348C5.99506 6.04616 5.53141 5.92513 5.53141 5.92513C5.53141 5.92513 5.99506 5.8041 6.18237 5.61678C6.36969 5.42946 6.49072 4.96582 6.49072 4.96582Z"
          fill="white"/>
    <path d="M5.39258 6.52783C5.39258 6.52783 5.56298 7.18059 5.8267 7.44431C6.09042 7.70803 6.74318 7.87844 6.74318 7.87844C6.74318 7.87844 6.09042 8.04884 5.8267 8.31256C5.56298 8.57628 5.39258 9.22904 5.39258 9.22904C5.39258 9.22904 5.22218 8.57628 4.95846 8.31256C4.69473 8.04884 4.04197 7.87844 4.04197 7.87844C4.04197 7.87844 4.69473 7.70803 4.95846 7.44431C5.22218 7.18059 5.39258 6.52783 5.39258 6.52783Z"
          fill="white"/>
    <path d="M6.33832 11.4535C6.33832 11.4535 6.91947 12.3073 8.13752 13.03C8.13752 13.03 7.25536 5.57439 13.0032 4.27954C11.5306 9.68431 14.8764 11.2085 16.0961 8.35309C18.1328 11.0724 16.5864 13.4449 16.5864 13.4449C17.4215 13.5653 18.1231 12.6528 18.1231 12.6528C18.1293 12.7652 18.1328 12.8784 18.1328 12.9924C18.1329 16.3045 15.4479 18.9895 12.1358 18.9895C8.82366 18.9895 6.13867 16.3045 6.13867 12.9923C6.13867 12.4603 6.20831 11.9446 6.33832 11.4535Z"
          fill="#448AFF"/>
    <path opacity="0.2"
          d="M18.1231 12.6528C18.1231 12.6528 17.4215 13.5653 16.5864 13.4449C16.5864 13.4449 18.1329 11.0724 16.0961 8.35309C14.8764 11.2085 11.5306 9.68431 13.0032 4.27954C12.6954 4.3489 12.4067 4.43603 12.1357 4.53863V18.9895C15.4479 18.9895 18.1329 16.3045 18.1329 12.9923C18.1329 12.8784 18.1293 12.7652 18.1231 12.6528Z"
          fill="#000051"/>
    <path d="M9.56543 16.3593C9.56543 17.8119 10.743 18.9894 12.1955 18.9894C13.6481 18.9894 14.8256 17.8119 14.8256 16.3593C14.8256 15.5819 14.4883 14.8832 13.952 14.4017C12.9351 15.7832 11.486 13.6876 12.6153 12.1572C12.6153 12.1572 9.56543 12.5394 9.56543 16.3593Z"
          fill="#000051"/>
    <path opacity="0.4"
          d="M14.8257 16.3593C14.8257 17.8119 13.6482 18.9894 12.1956 18.9894C12.1756 18.9894 12.1557 18.9892 12.1357 18.9887V12.2777C12.4234 12.1813 12.6155 12.1572 12.6155 12.1572C11.4861 13.6876 12.9352 15.7832 13.9521 14.4017C14.4884 14.8832 14.8257 15.5819 14.8257 16.3593Z"
          fill="#448AFF"/>
</svg>
