<svg width="44" height="50" viewBox="0 0 44 50" fill="none" xmlns="http://www.w3.org/2000/svg">
    <path d="M21.8186 26.9414C21.8703 26.9414 21.9221 26.9414 21.9842 26.9414C22.005 26.9414 22.0257 26.9414 22.0464 26.9414C22.0774 26.9414 22.1188 26.9414 22.1499 26.9414C25.1837 26.8896 27.6376 25.8232 29.4496 23.7834C33.4359 19.2897 32.7732 11.5863 32.7007 10.8511C32.4419 5.33237 29.8327 2.69207 27.679 1.45993C26.0741 0.538414 24.2 0.0414164 22.1085 0H22.036C22.0257 0 22.005 0 21.9946 0H21.9325C20.7832 0 18.526 0.186374 16.362 1.41851C14.1876 2.65065 11.5369 5.29095 11.2781 10.8511C11.2056 11.5863 10.543 19.2897 14.5293 23.7834C16.3309 25.8232 18.7848 26.8896 21.8186 26.9414ZM14.0426 11.11C14.0426 11.0789 14.053 11.0478 14.053 11.0271C14.3947 3.60323 19.6649 2.80596 21.9221 2.80596H21.9635C21.9842 2.80596 22.0153 2.80596 22.0464 2.80596C24.842 2.86809 29.5945 4.00704 29.9155 11.0271C29.9155 11.0582 29.9155 11.0893 29.9258 11.11C29.9362 11.1824 30.661 18.2232 27.3684 21.93C26.0638 23.4003 24.3243 24.1251 22.036 24.1458C22.0153 24.1458 22.005 24.1458 21.9842 24.1458C21.9635 24.1458 21.9532 24.1458 21.9325 24.1458C19.6546 24.1251 17.9047 23.4003 16.6105 21.93C13.3282 18.2439 14.0323 11.1721 14.0426 11.11Z"
          fill="white"/>
    <path d="M43.262 39.7185C43.262 39.7081 43.262 39.6978 43.262 39.6874C43.262 39.6046 43.2517 39.5217 43.2517 39.4286C43.1895 37.3784 43.0549 32.5845 38.5612 31.0521C38.5302 31.0417 38.4888 31.0314 38.4577 31.021C33.788 29.8303 29.9052 27.1382 29.8638 27.1072C29.2322 26.6619 28.3624 26.8173 27.9172 27.4489C27.472 28.0805 27.6273 28.9502 28.2589 29.3954C28.4349 29.5197 32.5559 32.3878 37.7122 33.7131C40.1247 34.5725 40.3939 37.1507 40.4664 39.5114C40.4664 39.6046 40.4664 39.6874 40.4768 39.7702C40.4871 40.7021 40.425 42.1413 40.2593 42.9697C38.582 43.9222 32.0071 47.2149 22.005 47.2149C12.0444 47.2149 5.42809 43.9119 3.74037 42.9593C3.57471 42.131 3.50223 40.6918 3.52294 39.7599C3.52294 39.6771 3.53329 39.5942 3.53329 39.501C3.60577 37.1403 3.87498 34.5621 6.28748 33.7027C11.4438 32.3774 15.5648 29.499 15.7408 29.3851C16.3724 28.9398 16.5277 28.0701 16.0825 27.4385C15.6372 26.8069 14.7675 26.6516 14.1359 27.0968C14.0945 27.1279 10.2324 29.8199 5.54199 31.0107C5.50057 31.021 5.46951 31.0314 5.43845 31.0417C0.944764 32.5845 0.81016 37.3784 0.748036 39.4182C0.748036 39.5114 0.748035 39.5942 0.737681 39.6771C0.737681 39.6874 0.737681 39.6978 0.737681 39.7081C0.727327 40.2465 0.716973 43.0111 1.26574 44.3985C1.36928 44.6677 1.55566 44.8955 1.80416 45.0508C2.11478 45.2579 9.55938 50.0001 22.0154 50.0001C34.4714 50.0001 41.916 45.2476 42.2266 45.0508C42.4647 44.8955 42.6615 44.6677 42.765 44.3985C43.2827 43.0214 43.2724 40.2569 43.262 39.7185Z"
          fill="white"/>
</svg>
