<svg width="24" height="24" viewBox="0 0 24 24" fill="none" xmlns="http://www.w3.org/2000/svg">
    <path d="M23.0305 11.0304H0.969469C0.434062 11.0304 0 11.4644 0 11.9999C0 12.5353 0.434062 12.9694 0.969469 12.9694H23.0305C23.566 12.9694 24 12.5353 24 11.9999C24 11.4645 23.566 11.0304 23.0305 11.0304Z"
          fill="white"/>
    <path d="M23.0305 3.6767H0.969469C0.434062 3.6767 0 4.11076 0 4.64617C0 5.18157 0.434062 5.61563 0.969469 5.61563H23.0305C23.566 5.61563 24 5.18157 24 4.64617C24 4.11076 23.566 3.6767 23.0305 3.6767Z"
          fill="white"/>
    <path d="M23.0305 18.3842H0.969469C0.434062 18.3842 0 18.8182 0 19.3536C0 19.8891 0.434062 20.3231 0.969469 20.3231H23.0305C23.566 20.3231 24 19.8891 24 19.3536C24 18.8182 23.566 18.3842 23.0305 18.3842Z"
          fill="white"/>
</svg>
