<svg width="36" height="36" viewBox="0 0 36 36" fill="none" xmlns="http://www.w3.org/2000/svg">
    <path d="M33.7817 2.81821H2.21829C0.995063 2.81821 0 3.81327 0 5.03643V26.4545C0 27.6777 0.995063 28.6727 2.21829 28.6727H12.8936L12.4618 32.1271H10.6727C10.3814 32.1271 10.1454 32.3632 10.1454 32.6545C10.1454 32.9457 10.3814 33.1818 10.6727 33.1818H25.3273C25.6186 33.1818 25.8546 32.9457 25.8546 32.6545C25.8546 32.3632 25.6186 32.1271 25.3273 32.1271H23.5383L23.1064 28.6727H33.7817C35.0049 28.6727 36 27.6777 36 26.4545V5.03643C36 3.81327 35.0049 2.81821 33.7817 2.81821ZM13.5247 32.1271L13.9565 28.6727H15.8974L16.0878 29.4342C16.3076 30.3133 17.094 30.9272 18.0001 30.9272C18.9062 30.9272 19.6926 30.3133 19.9124 29.4342L20.1028 28.6727H22.0436L22.4753 32.1271H13.5247ZM16.9845 28.6727H19.0155L18.889 29.1784C18.7869 29.5872 18.4213 29.8726 17.9999 29.8726C17.5785 29.8726 17.2131 29.5871 17.1108 29.1784L16.9845 28.6727ZM34.9453 26.4545C34.9453 27.0961 34.4233 27.6181 33.7817 27.6181H2.21829C1.57669 27.6181 1.05469 27.0961 1.05469 26.4545V5.03643C1.05469 4.39482 1.57669 3.87289 2.21829 3.87289H33.7817C34.4233 3.87289 34.9453 4.39482 34.9453 5.03643V26.4545Z"
          fill="white"/>
    <path d="M29.8362 5.07278H2.78174C2.49043 5.07278 2.25439 5.30882 2.25439 5.60013V25.8909C2.25439 26.1822 2.49043 26.4183 2.78174 26.4183H3.90906C4.20036 26.4183 4.4364 26.1822 4.4364 25.8909C4.43647 25.5997 4.20036 25.3636 3.90913 25.3636H3.30915V6.12747H29.8362C30.1275 6.12747 30.3635 5.89136 30.3635 5.60013C30.3635 5.30882 30.1275 5.07278 29.8362 5.07278Z"
          fill="white"/>
    <path d="M33.218 5.07278H32.0907C31.7994 5.07278 31.5633 5.30882 31.5633 5.60013C31.5633 5.89136 31.7994 6.12747 32.0907 6.12747H32.6907V25.3636H6.16357C5.87227 25.3636 5.63623 25.5997 5.63623 25.8909C5.63623 26.1822 5.87227 26.4183 6.16357 26.4183H33.2179C33.5092 26.4183 33.7453 26.1822 33.7453 25.8909V5.60013C33.7453 5.30882 33.5092 5.07278 33.218 5.07278Z"
          fill="white"/>
    <path d="M25.179 10.9114C25.0843 10.7902 24.9413 10.7166 24.7878 10.7096L12.3879 10.1459C12.3782 10.1455 12.3687 10.1453 12.3589 10.1454C12.2855 9.90445 12.1304 9.69548 11.9204 9.55542L10.4019 8.54306C10.1596 8.38155 9.83214 8.44701 9.67063 8.68938C9.50912 8.93175 9.57458 9.25912 9.81688 9.42063L11.3353 10.4329C11.3425 10.4376 11.3478 10.4449 11.3502 10.4532L13.2844 17.2229C13.3447 17.434 13.444 17.6237 13.5715 17.7875L12.8638 19.2029C12.6934 19.5436 12.7113 19.9404 12.9115 20.2644C12.9842 20.3819 13.0763 20.4819 13.1821 20.5621C13.0436 20.8039 12.9639 21.0836 12.9639 21.3817C12.9639 22.2941 13.7062 23.0363 14.6185 23.0363C15.5308 23.0363 16.2731 22.294 16.2731 21.3817C16.2731 21.1701 16.2328 20.9679 16.1601 20.7818H20.9678C20.8951 20.9679 20.8548 21.1701 20.8548 21.3817C20.8548 22.2941 21.597 23.0363 22.5094 23.0363C23.4217 23.0363 24.1639 22.294 24.1639 21.3817C24.1639 21.117 24.1012 20.8669 23.9902 20.6449C24.0967 20.5484 24.1639 20.4095 24.1639 20.2544C24.1639 19.9632 23.9279 19.7271 23.6366 19.7271H13.8394C13.8319 19.7271 13.8191 19.7271 13.8085 19.7099C13.7979 19.6927 13.8036 19.6814 13.807 19.6746L14.4589 18.3708C14.5916 18.4049 14.7298 18.4233 14.8713 18.4233C14.9365 18.4233 15.0023 18.4194 15.0685 18.4117L22.4785 17.54C23.4355 17.4273 24.2055 16.7169 24.3945 15.7719L25.2809 11.3398C25.311 11.189 25.2738 11.0325 25.179 10.9114ZM22.5092 20.7819C22.84 20.7819 23.1091 21.0511 23.1091 21.3818C23.1091 21.7127 22.84 21.9817 22.5092 21.9817C22.1784 21.9817 21.9093 21.7127 21.9093 21.3818C21.9093 21.051 22.1784 20.7819 22.5092 20.7819ZM14.6184 20.7819C14.9492 20.7819 15.2183 21.051 15.2183 21.3818C15.2183 21.7127 14.9492 21.9817 14.6184 21.9817C14.2876 21.9817 14.0185 21.7127 14.0185 21.3818C14.0185 21.051 14.2876 20.7819 14.6184 20.7819ZM13.3252 13.5272L12.6643 11.2143L14.7726 11.3101L15.1382 13.5272H13.3252ZM14.9453 17.3643C14.6513 17.3988 14.3795 17.2175 14.2984 16.9332L13.6266 14.5819H15.3121L15.7551 17.269L14.9453 17.3643ZM18.0365 17.0006L16.8038 17.1457L16.3811 14.582H18.0365V17.0006ZM18.0365 13.5272H16.2072L15.8497 11.3591L18.0365 11.4586V13.5272ZM20.7071 16.6864L19.0912 16.8765V14.5819H20.8976L20.7071 16.6864ZM20.9931 13.5272H19.0912V11.5065L21.1674 11.6008L20.9931 13.5272ZM23.3602 15.5652C23.2611 16.0607 22.8572 16.4335 22.3552 16.4925L21.7775 16.5605L21.9566 14.582H23.5568L23.3602 15.5652ZM23.7678 13.5272H22.0521L22.2221 11.6488L24.1262 11.7353L23.7678 13.5272Z"
          fill="white"/>
</svg>
