<svg width="44" height="36" viewBox="0 0 44 36" fill="none" xmlns="http://www.w3.org/2000/svg">
    <path d="M41.9777 31.5635H41.2445V15.9187C42.9002 15.0471 44 13.5271 44 11.8C44 11.7082 43.9707 11.618 43.9151 11.5383L38.8007 4.21544C38.4415 3.70124 37.7687 3.38174 37.0448 3.38174H6.95518C6.23133 3.38174 5.55852 3.70117 5.1993 4.21544L0.0849063 11.5383C0.0293047 11.618 0 11.7083 0 11.8C0 13.5271 1.09983 15.0471 2.7555 15.9187V31.5635H2.02228C1.66633 31.5635 1.37775 31.7996 1.37775 32.0908C1.37775 32.3821 1.66633 32.6182 2.02228 32.6182H41.9777C42.3338 32.6182 42.6222 32.3821 42.6222 32.0908C42.6222 31.7996 42.3337 31.5635 41.9777 31.5635ZM1.33349 12.3273H3.39977C3.75573 12.3273 4.0443 12.0912 4.0443 11.8C4.0443 11.5087 3.75573 11.2726 3.39977 11.2726H1.75519L6.31855 4.7387C6.44884 4.55224 6.69273 4.43643 6.95518 4.43643H37.0448C37.3073 4.43643 37.5513 4.55224 37.6814 4.7387L42.2447 11.2726H40.5998C40.2438 11.2726 39.9553 11.5087 39.9553 11.8C39.9553 12.0912 40.2438 12.3273 40.5998 12.3273H42.6664C42.3513 14.1965 40.3863 15.6408 38.0165 15.6408C35.6468 15.6408 33.6828 14.1964 33.3676 12.3273H37.8446C38.2006 12.3273 38.4891 12.0912 38.4891 11.8C38.4891 11.5087 38.2006 11.2726 37.8446 11.2726H6.15579C5.79984 11.2726 5.51126 11.5087 5.51126 11.8C5.51126 12.0912 5.79984 12.3273 6.15579 12.3273H10.6324C10.3171 14.1964 8.35304 15.6408 5.9834 15.6408C3.61359 15.6408 1.64863 14.1965 1.33349 12.3273ZM31.9878 12.3273C31.6726 14.1964 29.7085 15.6408 27.3389 15.6408C24.9691 15.6408 23.0051 14.1964 22.6899 12.3273H31.9878ZM21.3101 12.3273C20.9949 14.1964 19.0308 15.6408 16.6611 15.6408C14.2915 15.6408 12.3274 14.1964 12.0122 12.3273H21.3101ZM36.5109 31.5636H29.5334V29.8H36.5109V31.5636ZM36.5109 28.7454H29.5334V19.091H36.5109V28.7454ZM39.9554 31.5636H37.8V18.5636C37.8 18.2724 37.5115 18.0363 37.1555 18.0363H28.8889C28.5329 18.0363 28.2444 18.2724 28.2444 18.5636V31.5635H4.04456V16.4302C4.65309 16.6013 5.30484 16.6955 5.9834 16.6955C8.31188 16.6955 10.3339 15.6017 11.3223 14.0091C12.3106 15.6016 14.3327 16.6955 16.6611 16.6955C18.9896 16.6955 21.0116 15.6017 22 14.0091C22.9884 15.6016 25.0104 16.6955 27.3389 16.6955C29.6673 16.6955 31.6894 15.6017 32.6777 14.0091C33.6661 15.6016 35.6881 16.6955 38.0166 16.6955C38.6952 16.6955 39.3469 16.6013 39.9554 16.4303V31.5636Z"
          fill="white"/>
    <path d="M25.4442 18.0363H6.84424C6.48829 18.0363 6.19971 18.2724 6.19971 18.5636V29.2727C6.19971 29.5639 6.48829 29.8 6.84424 29.8H25.4442C25.8002 29.8 26.0887 29.5639 26.0887 29.2727V18.5636C26.0887 18.2723 25.8002 18.0363 25.4442 18.0363ZM24.7997 28.7454H7.48877V19.091H24.7997V28.7454Z"
          fill="white"/>
</svg>
