<svg width="1440" height="605" viewBox="0 0 1440 605" fill="none" xmlns="http://www.w3.org/2000/svg">
    <path d="M981.841 30.3341C1200.07 59.8675 1439 170.501 1439 170.501V591H-5V71.6344C265.456 2.72334 616.114 -27.0451 981.841 30.3341Z"
          fill="white"/>
    <path opacity="0.1"
          d="M981.841 30.3341C1200.07 59.8675 1439 170.501 1439 170.501V591H-5V71.6344C265.456 2.72334 616.114 -27.0451 981.841 30.3341Z"
          fill="url(#paint0_linear)"/>
    <path opacity="0.1"
          d="M985.841 41.9267C1204.07 71.4389 1443 170.75 1443 170.75V605H-1V75.234C191.969 26.984 722.898 -7.16651 985.841 41.9267Z"
          fill="url(#paint1_linear)"/>
    <g opacity="0.1" clip-path="url(#clip0)">
        <path d="M164.42 224.917C165.627 224.917 166.607 225.897 166.607 227.104C166.607 228.312 165.627 229.292 164.42 229.292C163.212 229.292 162.232 228.312 162.232 227.104C162.232 225.897 163.212 224.917 164.42 224.917Z"
              fill="#448AFF"/>
        <path d="M122.796 280.418L151.995 251.219C147.238 244.054 144.732 235.757 144.732 227.104C144.732 202.981 164.359 183.354 188.482 183.354C212.606 183.354 232.232 202.981 232.232 227.104C232.232 251.228 212.606 270.854 188.482 270.854C179.83 270.854 171.532 268.349 164.368 263.592L156.297 271.663C156.296 271.664 156.295 271.665 156.293 271.667L135.169 292.791C133.516 294.444 131.319 295.354 128.982 295.354C126.646 295.354 124.449 294.444 122.797 292.792C121.143 291.139 120.232 288.942 120.232 286.604C120.232 284.267 121.143 282.07 122.796 280.418ZM165.396 258.982C165.396 258.982 165.397 258.982 165.397 258.983C172.149 263.887 180.132 266.479 188.482 266.479C210.194 266.479 227.857 248.816 227.857 227.104C227.857 205.393 210.194 187.729 188.482 187.729C166.771 187.729 149.107 205.393 149.107 227.104C149.107 235.455 151.7 243.438 156.604 250.19C159.058 253.571 162.016 256.529 165.396 258.982ZM160.807 260.965C158.543 259.113 156.473 257.044 154.621 254.78L148.415 260.986C150.303 263.214 152.373 265.284 154.601 267.172L160.807 260.965ZM125.89 289.697C126.716 290.524 127.815 290.979 128.982 290.979C130.15 290.979 131.248 290.524 132.075 289.697L151.499 270.273C149.284 268.372 147.215 266.303 145.314 264.088L125.889 283.512C125.063 284.338 124.607 285.436 124.607 286.604C124.607 287.773 125.063 288.871 125.89 289.697Z"
              fill="#448AFF"/>
        <path d="M188.482 192.104C207.782 192.104 223.482 207.805 223.482 227.104C223.482 246.404 207.782 262.104 188.482 262.104C169.183 262.104 153.482 246.404 153.482 227.104C153.482 207.805 169.183 192.104 188.482 192.104ZM188.482 257.729C205.369 257.729 219.107 243.991 219.107 227.104C219.107 210.218 205.369 196.479 188.482 196.479C171.596 196.479 157.857 210.218 157.857 227.104C157.857 243.991 171.596 257.729 188.482 257.729Z"
              fill="#448AFF"/>
        <path d="M163.968 217.714C165.852 212.812 169.132 208.62 173.453 205.593C177.878 202.493 183.075 200.854 188.482 200.854C189.69 200.854 190.67 201.834 190.67 203.042C190.67 204.25 189.69 205.229 188.482 205.229C179.492 205.229 171.282 210.877 168.052 219.284C167.718 220.153 166.889 220.687 166.01 220.687C165.749 220.687 165.483 220.64 165.226 220.541C164.098 220.108 163.535 218.842 163.968 217.714Z"
              fill="#448AFF"/>
    </g>
    <g opacity="0.08" clip-path="url(#clip1)">
        <path d="M857.037 373.815C856.239 373.815 855.592 374.463 855.592 375.261C855.592 376.059 856.239 376.706 857.037 376.706C857.835 376.706 858.482 376.059 858.482 375.261C858.482 374.463 857.835 373.815 857.037 373.815Z"
              fill="#448AFF"/>
        <path d="M884.539 410.486L865.247 391.194C868.389 386.46 870.045 380.978 870.045 375.261C870.045 359.322 857.078 346.354 841.139 346.354C825.2 346.354 812.232 359.322 812.232 375.261C812.232 391.2 825.2 404.167 841.139 404.167C846.856 404.167 852.338 402.511 857.072 399.369L862.404 404.701C862.405 404.702 862.406 404.703 862.406 404.704L876.364 418.661C877.456 419.753 878.907 420.354 880.451 420.354C881.995 420.354 883.446 419.753 884.538 418.661C885.631 417.57 886.232 416.118 886.232 414.573C886.232 413.029 885.631 411.577 884.539 410.486ZM856.392 396.323C856.392 396.323 856.392 396.323 856.392 396.323C851.93 399.564 846.656 401.276 841.139 401.276C826.794 401.276 815.123 389.606 815.123 375.261C815.123 360.916 826.794 349.245 841.139 349.245C855.484 349.245 867.154 360.916 867.154 375.261C867.154 380.778 865.441 386.052 862.201 390.514C860.58 392.747 858.625 394.702 856.392 396.323ZM859.424 397.633C860.92 396.409 862.287 395.042 863.511 393.546L867.612 397.647C866.365 399.119 864.996 400.487 863.525 401.734L859.424 397.633ZM882.495 416.617C881.948 417.163 881.223 417.464 880.451 417.464C879.68 417.464 878.954 417.163 878.408 416.617L865.574 403.783C867.038 402.527 868.405 401.16 869.661 399.696L882.495 412.53C883.041 413.076 883.342 413.801 883.342 414.573C883.342 415.345 883.041 416.071 882.495 416.617Z"
              fill="#448AFF"/>
        <path d="M841.139 352.136C828.387 352.136 818.014 362.509 818.014 375.261C818.014 388.012 828.387 398.386 841.139 398.386C853.89 398.386 864.264 388.012 864.264 375.261C864.264 362.509 853.89 352.136 841.139 352.136ZM841.139 395.495C829.981 395.495 820.904 386.418 820.904 375.261C820.904 364.104 829.981 355.026 841.139 355.026C852.296 355.026 861.373 364.104 861.373 375.261C861.373 386.418 852.296 395.495 841.139 395.495Z"
              fill="#448AFF"/>
        <path d="M857.336 369.056C856.091 365.817 853.924 363.048 851.069 361.048C848.145 359 844.712 357.917 841.139 357.917C840.341 357.917 839.693 358.564 839.693 359.362C839.693 360.16 840.341 360.808 841.139 360.808C847.079 360.808 852.503 364.539 854.637 370.093C854.858 370.668 855.406 371.021 855.987 371.021C856.159 371.021 856.334 370.99 856.505 370.924C857.25 370.638 857.622 369.802 857.336 369.056Z"
              fill="#448AFF"/>
    </g>
    <g opacity="0.1" clip-path="url(#clip2)">
        <path d="M1273.95 195.983C1273.41 195.05 1272.21 194.733 1271.28 195.274L1271.2 195.317C1270.27 195.858 1269.95 197.053 1270.49 197.986C1270.86 198.611 1271.51 198.96 1272.19 198.96C1272.52 198.96 1272.86 198.874 1273.16 198.695L1273.24 198.652C1274.17 198.111 1274.49 196.916 1273.95 195.983Z"
              fill="#448AFF"/>
        <path d="M1291.53 130.371C1284.86 118.807 1274.08 110.536 1261.18 107.08C1248.28 103.624 1234.81 105.398 1223.25 112.074C1211.68 118.75 1203.41 129.53 1199.96 142.427C1196.5 155.324 1198.27 168.795 1204.95 180.358C1210.94 190.731 1220.46 198.614 1231.75 202.555C1237.11 204.423 1242.69 205.355 1248.27 205.355C1254.34 205.355 1260.4 204.252 1266.12 202.052C1267.13 201.665 1267.63 200.535 1267.25 199.529C1266.86 198.522 1265.73 198.019 1264.72 198.406C1249.48 204.263 1232.99 201.602 1220.66 192.351L1222.41 183.217L1223.25 182.943C1226.44 181.908 1228.19 178.474 1227.16 175.288L1226.54 173.383C1226.39 172.943 1226.4 172.477 1226.54 172.037C1227.08 170.382 1226.89 168.572 1226.01 167.069C1225.13 165.567 1223.64 164.514 1221.93 164.18L1217.52 163.318L1209.02 156.852C1208.51 156.464 1207.84 156.351 1207.23 156.549L1202.25 158.166C1202.15 156.385 1202.15 154.605 1202.25 152.834C1202.44 153.017 1202.57 153.141 1202.65 153.223C1202.75 153.385 1202.87 153.534 1203.01 153.663C1203.42 154.033 1203.78 154.201 1204.56 154.201C1205.27 154.201 1206.32 154.059 1208.06 153.803C1209.7 153.559 1211.34 153.285 1211.36 153.282C1212.02 153.172 1212.57 152.734 1212.83 152.122C1213.09 151.51 1213.03 150.806 1212.65 150.256L1210.26 146.743L1213.69 144.291C1213.91 144.127 1214.11 143.916 1214.24 143.673L1219.56 134.39L1221.71 132.094C1223.9 129.747 1224.52 126.313 1223.3 123.345C1222.58 121.594 1221.32 120.137 1219.74 119.154C1221.45 117.812 1223.27 116.573 1225.2 115.457C1232.3 111.359 1240.04 109.373 1247.71 109.297L1244.22 113.672L1231.29 118.206C1230.76 118.39 1230.34 118.789 1230.13 119.304L1226.52 128.059C1226.26 128.681 1226.34 129.391 1226.73 129.939L1232.01 137.328C1231.25 138.017 1230.52 139.021 1229.64 140.268C1229.25 140.814 1228.89 141.33 1228.64 141.62C1228.42 141.872 1228.2 142.118 1227.98 142.362C1226.85 143.638 1225.68 144.958 1224.84 146.721C1223.01 150.6 1223.38 155.108 1225.81 158.487C1228.16 161.754 1232.03 163.414 1236.16 162.928C1236.83 162.849 1237.46 162.694 1238.07 162.544C1239.74 162.129 1240.27 162.088 1240.81 162.591C1241.07 162.835 1241.09 162.882 1241.09 163.712C1241.08 164.24 1241.08 164.897 1241.26 165.647C1241.55 166.847 1242.31 167.677 1242.91 168.343C1243.21 168.674 1243.53 169.017 1243.62 169.246C1244.23 170.706 1243.97 171.515 1243.38 173.286C1243.33 173.438 1243.28 173.592 1243.23 173.751C1242.35 176.484 1243.58 179.196 1244.67 181.588C1245.02 182.364 1245.35 183.097 1245.57 183.746C1247.33 188.956 1248.64 190.15 1249.7 190.63C1250.25 190.882 1250.82 190.992 1251.4 190.992C1254.22 190.992 1257.16 188.378 1258.51 186.72C1259.35 185.68 1259.56 184.638 1259.72 183.877C1259.79 183.498 1259.85 183.199 1259.96 183.004C1260.14 182.705 1260.35 182.473 1260.61 182.18C1261.13 181.59 1261.78 180.857 1262.2 179.527C1262.52 178.517 1262.76 178.269 1263.53 177.447C1263.66 177.305 1263.81 177.152 1263.96 176.985C1266.56 174.154 1265.89 171.992 1265.18 169.702C1264.58 167.776 1265.63 166.544 1268.15 164.192C1269.25 163.173 1270.38 162.119 1271.25 160.853C1271.64 160.298 1272.8 158.612 1272.08 156.941C1271.38 155.302 1269.58 155.027 1268.14 154.806C1267.57 154.718 1266.71 154.586 1266.43 154.407C1265.22 153.617 1264.48 151.968 1263.77 150.374C1263.63 150.056 1263.49 149.743 1263.34 149.439C1263.09 148.896 1262.84 148.24 1262.57 147.545C1261.86 145.706 1261.05 143.621 1259.68 142.168C1258.45 140.863 1256.13 140.234 1254.08 139.679C1253.39 139.492 1252.74 139.316 1252.31 139.157C1251.95 139.025 1251.56 139.001 1251.19 139.088C1250.19 139.322 1249.57 139.58 1249.1 139.95C1248.98 140.048 1248.62 140.369 1248.41 140.885C1247.69 140.542 1246.71 139.887 1246.11 139.484C1246.09 139.475 1246.08 139.467 1246.07 139.458C1246.27 138.642 1246.09 137.988 1245.89 137.579C1244.8 135.271 1241.18 135.451 1240.47 135.512C1240.06 135.546 1239.55 135.564 1239 135.583C1238.15 135.614 1237.21 135.648 1236.28 135.752L1236.32 135.618C1237.03 133.645 1238.92 132.319 1241.01 132.319H1242.12C1243.2 132.319 1244.08 131.445 1244.08 130.366C1244.08 129.288 1243.2 128.413 1242.12 128.413H1241.01C1237.9 128.413 1235.05 130.052 1233.45 132.63L1230.54 128.549L1233.41 121.602L1246.04 117.172C1246.39 117.05 1246.69 116.833 1246.92 116.546L1252.54 109.499C1266.9 110.865 1280.41 118.913 1288.15 132.323C1290.21 135.896 1291.74 139.656 1292.75 143.502L1291.92 144.241C1290.84 145.205 1290.21 146.588 1290.19 148.035C1290.19 148.051 1290.19 148.067 1290.18 148.082L1288.84 144.373C1288.63 143.82 1288.34 143.312 1287.96 142.864L1285.55 140.047C1284.62 138.955 1283.26 138.33 1281.82 138.33H1278.88C1277.83 138.33 1276.88 138.902 1276.38 139.823C1275.89 140.745 1275.95 141.858 1276.52 142.727L1276.82 143.175C1274.92 144.811 1272.72 146.121 1270.37 147.004L1266.34 139.271V137.546C1266.34 137.012 1266.12 136.502 1265.73 136.133L1262.1 132.663C1261.9 132.471 1261.66 132.325 1261.4 132.233L1258.12 131.083C1257.11 130.725 1255.99 131.261 1255.63 132.278C1255.28 133.296 1255.81 134.41 1256.83 134.768L1259.71 135.779L1262.43 138.382V139.75C1262.43 140.065 1262.51 140.375 1262.65 140.654L1267.71 150.335C1268.16 151.206 1269.19 151.605 1270.11 151.264L1271.59 150.721C1275.01 149.46 1278.17 147.432 1280.75 144.856C1281.41 144.197 1281.51 143.166 1280.99 142.392L1280.89 142.236H1281.82C1282.12 142.236 1282.39 142.363 1282.58 142.585L1284.99 145.402C1285.06 145.492 1285.12 145.595 1285.17 145.708L1287.82 153.009C1288.05 153.637 1288.58 154.104 1289.23 154.248C1289.37 154.279 1289.51 154.295 1289.66 154.295C1290.17 154.295 1290.67 154.093 1291.04 153.722L1292.3 152.459C1293.1 151.658 1293.65 150.645 1293.91 149.522C1295.87 165.187 1289.73 181.392 1276.74 191.582C1275.9 192.248 1275.75 193.476 1276.41 194.324C1277.08 195.173 1278.31 195.321 1279.16 194.655C1288.53 187.298 1294.97 176.775 1297.29 165.026C1299.63 153.163 1297.58 140.855 1291.53 130.371ZM1207.47 160.579L1215.52 166.703C1215.76 166.884 1216.03 167.007 1216.33 167.065L1221.18 168.013C1221.8 168.134 1222.32 168.501 1222.64 169.045C1222.96 169.589 1223.02 170.219 1222.83 170.819C1222.42 172.052 1222.42 173.356 1222.82 174.59L1223.44 176.494C1223.81 177.632 1223.19 178.859 1222.05 179.228L1220.11 179.859C1219.43 180.079 1218.93 180.65 1218.79 181.349L1217.23 189.503C1213.8 186.36 1210.78 182.645 1208.33 178.406C1205.35 173.234 1203.48 167.719 1202.66 162.141L1207.47 160.579ZM1218.85 129.429L1216.55 131.891C1216.45 132.001 1216.36 132.122 1216.28 132.253L1211.07 141.361L1206.43 144.677C1205.57 145.294 1205.36 146.488 1205.95 147.366L1207.69 149.909C1206.69 150.058 1205.79 150.181 1205.19 150.246C1205.08 150.136 1204.96 150.024 1204.84 149.909C1204.37 149.478 1203.73 148.902 1202.76 148.06C1204.35 138.243 1209.08 128.995 1216.52 121.935C1217.95 122.384 1219.11 123.447 1219.69 124.833C1220.33 126.392 1220 128.196 1218.85 129.429ZM1234.77 140.102C1235.64 139.611 1237.67 139.54 1239.14 139.487C1239.73 139.466 1240.29 139.446 1240.79 139.405C1241.06 139.383 1241.35 139.387 1241.62 139.408C1241.5 139.725 1241.46 140.072 1241.51 140.416C1241.61 141.022 1241.98 141.549 1242.52 141.838C1242.89 142.034 1243.4 142.374 1243.94 142.734C1245.47 143.752 1247.2 144.905 1248.82 145.009C1250.3 145.105 1251.12 144.262 1251.47 143.903C1251.5 143.875 1251.53 143.846 1251.56 143.82C1251.76 143.659 1251.94 143.442 1252.08 143.18C1252.39 143.27 1252.72 143.358 1253.06 143.45C1254.21 143.763 1256.36 144.346 1256.84 144.849C1257.69 145.745 1258.34 147.449 1258.92 148.953C1259.22 149.713 1259.5 150.43 1259.81 151.095C1259.94 151.381 1260.07 151.675 1260.21 151.972C1261.11 153.982 1262.13 156.261 1264.3 157.677C1265.28 158.32 1266.48 158.504 1267.55 158.667C1267.67 158.687 1267.82 158.71 1267.97 158.734C1267.34 159.614 1266.44 160.451 1265.49 161.335C1263.07 163.586 1260.07 166.388 1261.45 170.859C1262.11 172.97 1262.14 173.198 1261.08 174.342C1260.94 174.498 1260.81 174.64 1260.68 174.774C1259.78 175.733 1259.07 176.49 1258.48 178.346C1258.31 178.884 1258.09 179.134 1257.69 179.587C1257.36 179.95 1256.96 180.401 1256.59 181.034C1256.15 181.792 1256 182.522 1255.89 183.109C1255.77 183.686 1255.7 183.976 1255.48 184.254C1254.96 184.887 1254 185.806 1253.01 186.434C1252.09 187.017 1251.56 187.096 1251.38 187.086C1251.17 186.862 1250.41 185.884 1249.27 182.498C1248.99 181.663 1248.6 180.804 1248.22 179.973C1247.39 178.141 1246.53 176.246 1246.95 174.952C1247 174.799 1247.05 174.65 1247.1 174.504C1247.76 172.467 1248.4 170.543 1247.23 167.742C1246.87 166.889 1246.3 166.266 1245.8 165.716C1245.48 165.36 1245.11 164.957 1245.06 164.725C1244.99 164.442 1244.99 164.115 1244.99 163.737C1245 162.717 1245.01 161.175 1243.48 159.739C1241.32 157.716 1238.8 158.339 1237.13 158.752C1236.62 158.878 1236.13 158.998 1235.7 159.049C1232.96 159.37 1230.51 158.335 1228.98 156.207C1227.38 153.981 1227.15 150.985 1228.37 148.39C1228.97 147.134 1229.87 146.124 1230.9 144.956C1231.13 144.701 1231.36 144.444 1231.59 144.18C1231.97 143.741 1232.39 143.146 1232.83 142.517C1233.36 141.766 1234.35 140.368 1234.77 140.102Z"
              fill="#448AFF"/>
        <path d="M1278.31 172.596L1277.38 169.055C1277.17 168.281 1276.51 167.711 1275.72 167.616C1274.92 167.523 1274.15 167.921 1273.77 168.624C1273.56 169.019 1273.36 169.437 1273.18 169.841C1272.86 170.521 1272.54 171.224 1272.2 171.612C1272.01 171.83 1271.53 172.065 1271.06 172.292C1269.93 172.835 1268.39 173.578 1267.8 175.453C1267.44 176.616 1267.57 177.537 1267.67 178.209C1267.76 178.791 1267.78 178.993 1267.62 179.36L1267.6 179.405C1266.98 180.864 1265.83 183.58 1267.45 185.888C1268.61 187.536 1269.82 187.96 1270.77 187.96C1270.95 187.96 1271.13 187.944 1271.29 187.918C1273.28 187.592 1274.78 185.52 1276 181.396L1278.3 173.653C1278.4 173.309 1278.41 172.943 1278.31 172.596ZM1272.26 180.285C1271.63 182.387 1271.08 183.369 1270.76 183.804C1270.73 183.757 1270.69 183.704 1270.64 183.643C1270.27 183.112 1270.83 181.802 1271.2 180.936L1271.22 180.89C1271.81 179.493 1271.65 178.42 1271.54 177.636C1271.46 177.134 1271.44 176.919 1271.53 176.622C1271.61 176.379 1272.06 176.143 1272.75 175.81C1273.06 175.662 1273.4 175.5 1273.74 175.303L1272.26 180.285Z"
              fill="#448AFF"/>
        <path d="M1250.97 128.569L1250.84 128.523C1249.82 128.167 1248.71 128.702 1248.35 129.72C1247.99 130.738 1248.53 131.852 1249.55 132.209L1249.68 132.255C1249.89 132.33 1250.11 132.366 1250.33 132.366C1251.13 132.366 1251.89 131.862 1252.17 131.059C1252.53 130.041 1251.99 128.926 1250.97 128.569Z"
              fill="#448AFF"/>
    </g>
    <g opacity="0.05" clip-path="url(#clip3)">
        <path d="M588.719 399.627C588.351 398.993 587.539 398.777 586.904 399.145L586.853 399.175C586.218 399.543 586.002 400.355 586.37 400.99C586.617 401.414 587.062 401.652 587.52 401.652C587.746 401.652 587.976 401.594 588.186 401.472L588.237 401.443C588.871 401.074 589.087 400.262 588.719 399.627Z"
              fill="#448AFF"/>
        <path d="M600.677 355.011C596.137 347.148 588.807 341.524 580.037 339.174C571.267 336.824 562.106 338.03 554.243 342.57C546.38 347.109 540.756 354.439 538.406 363.209C536.056 371.979 537.262 381.14 541.801 389.003C545.874 396.056 552.346 401.417 560.026 404.097C563.666 405.367 567.467 406.001 571.261 406.001C575.387 406.001 579.506 405.251 583.398 403.755C584.083 403.492 584.425 402.723 584.161 402.039C583.898 401.354 583.13 401.012 582.445 401.276C572.083 405.258 560.866 403.449 552.485 397.158L553.675 390.947L554.248 390.761C556.415 390.057 557.605 387.721 556.901 385.555L556.48 384.26C556.383 383.96 556.383 383.644 556.482 383.344C556.851 382.219 556.719 380.988 556.12 379.966C555.521 378.945 554.511 378.229 553.348 378.001L550.351 377.416L544.567 373.018C544.221 372.755 543.767 372.678 543.353 372.812L539.967 373.912C539.895 372.701 539.894 371.49 539.962 370.286C540.096 370.411 540.183 370.495 540.236 370.551C540.302 370.661 540.385 370.762 540.481 370.85C540.757 371.102 541.008 371.216 541.534 371.216C542.017 371.216 542.732 371.12 543.914 370.945C545.034 370.779 546.149 370.593 546.16 370.591C546.606 370.516 546.984 370.219 547.162 369.802C547.339 369.386 547.292 368.908 547.037 368.533L545.409 366.145L547.741 364.477C547.897 364.366 548.026 364.222 548.121 364.057L551.737 357.745L553.194 356.183C554.683 354.587 555.108 352.252 554.277 350.234C553.786 349.043 552.929 348.052 551.858 347.384C553.018 346.472 554.256 345.629 555.571 344.87C560.397 342.083 565.664 340.733 570.876 340.681L568.504 343.656L559.71 346.739C559.353 346.864 559.066 347.136 558.922 347.486L556.466 353.44C556.291 353.863 556.347 354.345 556.613 354.718L560.2 359.742C559.686 360.211 559.186 360.894 558.589 361.741C558.327 362.113 558.079 362.464 557.908 362.661C557.76 362.832 557.611 362.999 557.464 363.165C556.692 364.033 555.894 364.931 555.328 366.13C554.082 368.767 554.333 371.833 555.985 374.13C557.581 376.352 560.213 377.481 563.022 377.15C563.48 377.097 563.907 376.991 564.32 376.889C565.458 376.607 565.819 376.579 566.184 376.921C566.362 377.087 566.378 377.119 566.375 377.683C566.372 378.042 566.369 378.489 566.493 378.999C566.691 379.815 567.204 380.379 567.616 380.832C567.82 381.058 568.032 381.291 568.097 381.447C568.512 382.44 568.331 382.989 567.936 384.194C567.902 384.297 567.868 384.402 567.833 384.51C567.232 386.369 568.069 388.212 568.808 389.839C569.048 390.367 569.274 390.866 569.422 391.306C570.617 394.85 571.512 395.661 572.23 395.988C572.606 396.159 572.996 396.234 573.389 396.234C575.304 396.234 577.301 394.456 578.219 393.329C578.796 392.621 578.938 391.913 579.041 391.395C579.093 391.138 579.133 390.935 579.211 390.802C579.33 390.599 579.47 390.441 579.647 390.242C580.003 389.841 580.446 389.342 580.733 388.438C580.951 387.751 581.109 387.582 581.634 387.023C581.726 386.926 581.823 386.822 581.927 386.709C583.696 384.784 583.241 383.314 582.758 381.757C582.352 380.447 583.062 379.609 584.779 378.01C585.524 377.317 586.293 376.6 586.888 375.739C587.148 375.362 587.94 374.216 587.45 373.079C586.97 371.965 585.749 371.778 584.768 371.627C584.381 371.568 583.795 371.478 583.609 371.356C582.787 370.819 582.284 369.698 581.798 368.613C581.701 368.398 581.606 368.184 581.509 367.978C581.336 367.609 581.164 367.162 580.981 366.69C580.498 365.439 579.951 364.022 579.018 363.034C578.18 362.146 576.601 361.718 575.207 361.341C574.739 361.214 574.296 361.094 574.004 360.986C573.76 360.896 573.495 360.88 573.241 360.939C572.563 361.098 572.14 361.273 571.826 361.525C571.743 361.592 571.497 361.81 571.353 362.161C570.867 361.928 570.198 361.482 569.787 361.208C569.778 361.202 569.77 361.197 569.761 361.191C569.9 360.636 569.774 360.191 569.643 359.913C568.901 358.343 566.438 358.466 565.952 358.508C565.676 358.531 565.327 358.543 564.958 358.556C564.378 358.577 563.736 358.6 563.102 358.671L563.135 358.58C563.616 357.238 564.898 356.336 566.323 356.336H567.078C567.811 356.336 568.406 355.742 568.406 355.008C568.406 354.275 567.811 353.68 567.078 353.68H566.323C564.207 353.68 562.269 354.794 561.182 356.548L559.201 353.773L561.15 349.049L569.744 346.036C569.979 345.953 570.187 345.806 570.343 345.611L574.163 340.819C583.924 341.747 593.112 347.22 598.377 356.339C599.779 358.768 600.816 361.325 601.506 363.941L600.943 364.443C600.208 365.099 599.778 366.039 599.761 367.023C599.761 367.034 599.761 367.045 599.76 367.055L598.843 364.533C598.707 364.157 598.505 363.811 598.245 363.507L596.609 361.592C595.975 360.849 595.051 360.423 594.075 360.423H592.072C591.361 360.423 590.712 360.813 590.376 361.439C590.041 362.066 590.077 362.823 590.472 363.414L590.674 363.718C589.38 364.831 587.884 365.721 586.29 366.322L583.545 361.064V359.89C583.545 359.528 583.396 359.18 583.134 358.93L580.661 356.57C580.525 356.44 580.363 356.34 580.185 356.278L577.959 355.496C577.267 355.252 576.509 355.616 576.266 356.308C576.023 357 576.387 357.758 577.079 358.001L579.034 358.689L580.889 360.459V361.39C580.889 361.603 580.94 361.814 581.039 362.004L584.476 368.587C584.785 369.18 585.487 369.45 586.113 369.219L587.114 368.85C589.439 367.992 591.593 366.613 593.345 364.861C593.793 364.414 593.863 363.712 593.511 363.186L593.441 363.079H594.075C594.273 363.079 594.461 363.166 594.59 363.317L596.226 365.232C596.279 365.294 596.319 365.364 596.347 365.441L598.153 370.406C598.308 370.832 598.67 371.15 599.113 371.248C599.209 371.269 599.305 371.28 599.401 371.28C599.749 371.28 600.088 371.142 600.34 370.891L601.199 370.031C601.743 369.487 602.118 368.798 602.297 368.034C603.626 378.687 599.449 389.706 590.621 396.635C590.044 397.088 589.943 397.923 590.396 398.5C590.849 399.077 591.683 399.177 592.261 398.724C598.635 393.722 603.013 386.567 604.591 378.577C606.182 370.51 604.793 362.141 600.677 355.011ZM543.513 375.553L548.989 379.717C549.151 379.84 549.338 379.924 549.538 379.963L552.839 380.608C553.26 380.691 553.611 380.94 553.828 381.31C554.046 381.68 554.091 382.108 553.958 382.516C553.683 383.355 553.681 384.242 553.954 385.08L554.375 386.375C554.626 387.149 554.201 387.983 553.427 388.235L552.108 388.663C551.647 388.813 551.305 389.201 551.214 389.676L550.152 395.221C547.816 393.084 545.766 390.558 544.102 387.675C542.071 384.159 540.803 380.408 540.243 376.615L543.513 375.553ZM551.252 354.371L549.69 356.045C549.62 356.12 549.559 356.202 549.509 356.291L545.961 362.485L542.808 364.739C542.221 365.159 542.076 365.971 542.483 366.568L543.662 368.298C542.982 368.399 542.372 368.482 541.967 368.526C541.889 368.452 541.807 368.376 541.723 368.298C541.407 368.004 540.969 367.613 540.315 367.04C541.393 360.365 544.61 354.076 549.669 349.275C550.638 349.58 551.433 350.303 551.821 351.246C552.258 352.306 552.035 353.533 551.252 354.371ZM562.081 361.628C562.673 361.295 564.048 361.246 565.052 361.211C565.454 361.196 565.834 361.183 566.174 361.154C566.353 361.139 566.552 361.142 566.739 361.157C566.655 361.372 566.628 361.608 566.665 361.842C566.729 362.255 566.983 362.612 567.35 362.809C567.599 362.943 567.946 363.174 568.313 363.419C569.351 364.11 570.528 364.895 571.633 364.965C572.638 365.03 573.197 364.458 573.437 364.214C573.456 364.194 573.474 364.175 573.493 364.157C573.628 364.047 573.755 363.9 573.849 363.722C574.061 363.783 574.284 363.843 574.513 363.905C575.299 364.118 576.763 364.514 577.086 364.857C577.661 365.466 578.109 366.625 578.504 367.647C578.703 368.164 578.892 368.652 579.103 369.104C579.194 369.298 579.284 369.498 579.375 369.7C579.987 371.067 580.682 372.617 582.155 373.58C582.824 374.017 583.643 374.142 584.365 374.253C584.453 374.267 584.553 374.282 584.655 374.299C584.226 374.897 583.615 375.466 582.97 376.067C581.326 377.598 579.279 379.503 580.222 382.543C580.667 383.979 580.687 384.134 579.972 384.912C579.875 385.018 579.784 385.115 579.699 385.205C579.086 385.857 578.602 386.372 578.202 387.634C578.085 388.001 577.935 388.17 577.661 388.479C577.442 388.725 577.169 389.032 576.918 389.462C576.617 389.978 576.517 390.474 576.437 390.873C576.358 391.266 576.314 391.463 576.16 391.652C575.809 392.082 575.155 392.708 574.483 393.134C573.859 393.531 573.495 393.585 573.37 393.577C573.229 393.426 572.715 392.76 571.94 390.458C571.748 389.89 571.483 389.306 571.226 388.741C570.661 387.495 570.076 386.207 570.361 385.326C570.394 385.222 570.427 385.121 570.46 385.022C570.915 383.637 571.343 382.328 570.549 380.424C570.307 379.844 569.921 379.42 569.582 379.046C569.362 378.804 569.113 378.53 569.075 378.372C569.028 378.18 569.029 377.958 569.031 377.701C569.036 377.007 569.043 375.958 568 374.982C566.53 373.606 564.817 374.03 563.682 374.31C563.334 374.397 563.005 374.478 562.713 374.512C560.847 374.731 559.182 374.027 558.142 372.58C557.054 371.066 556.896 369.029 557.73 367.264C558.133 366.41 558.743 365.724 559.449 364.93C559.603 364.756 559.759 364.581 559.915 364.402C560.174 364.103 560.459 363.699 560.76 363.271C561.12 362.76 561.79 361.809 562.081 361.628Z"
              fill="#448AFF"/>
        <path d="M591.688 383.725L591.049 381.316C590.91 380.79 590.463 380.403 589.923 380.338C589.382 380.275 588.858 380.545 588.598 381.024C588.453 381.292 588.322 381.576 588.195 381.851C587.982 382.313 587.761 382.791 587.532 383.055C587.403 383.203 587.072 383.363 586.752 383.518C585.988 383.887 584.94 384.392 584.54 385.667C584.292 386.458 584.385 387.084 584.452 387.541C584.511 387.937 584.525 388.074 584.418 388.324L584.405 388.354C583.982 389.346 583.196 391.193 584.299 392.763C585.086 393.884 585.913 394.172 586.556 394.172C586.682 394.172 586.8 394.161 586.91 394.143C588.265 393.922 589.283 392.513 590.115 389.708L591.678 384.443C591.747 384.209 591.751 383.961 591.688 383.725ZM587.569 388.953C587.145 390.382 586.77 391.05 586.553 391.346C586.528 391.314 586.501 391.278 586.472 391.237C586.218 390.875 586.598 389.985 586.849 389.395L586.862 389.364C587.267 388.414 587.159 387.684 587.08 387.152C587.029 386.81 587.011 386.664 587.075 386.462C587.127 386.297 587.438 386.136 587.907 385.91C588.115 385.809 588.343 385.699 588.574 385.565L587.569 388.953Z"
              fill="#448AFF"/>
        <path d="M573.096 353.786L573.007 353.755C572.315 353.512 571.557 353.876 571.314 354.568C571.071 355.261 571.436 356.018 572.128 356.261L572.217 356.292C572.363 356.343 572.511 356.368 572.657 356.368C573.205 356.368 573.718 356.025 573.91 355.479C574.153 354.787 573.788 354.029 573.096 353.786Z"
              fill="#448AFF"/>
    </g>
    <g opacity="0.06" clip-path="url(#clip4)">
        <path d="M93.5102 464.009C96.5578 468.306 99.6005 472.149 101.617 474.624C101.911 474.985 102.186 475.319 102.452 475.641H96.3667C95.6855 475.641 95.1334 476.193 95.1334 476.874C95.1334 477.555 95.6855 478.107 96.3667 478.107H116.1C116.781 478.107 117.333 477.555 117.333 476.874C117.333 476.193 116.781 475.641 116.1 475.641H110.015C110.281 475.319 110.556 474.984 110.851 474.624C112.866 472.158 115.908 468.306 118.956 464.009C121.981 459.831 124.704 455.443 127.104 450.878C129.622 445.932 130.9 441.826 130.9 438.674C130.909 432.124 128.309 425.839 123.676 421.209C123.367 420.888 122.909 420.759 122.477 420.871C122.046 420.984 121.709 421.321 121.596 421.752C121.483 422.183 121.611 422.641 121.931 422.951C126.101 427.12 128.441 432.777 128.433 438.674C128.433 441.434 127.247 445.164 124.906 449.758C122.561 454.217 119.9 458.504 116.944 462.585C113.937 466.826 110.931 470.626 108.939 473.068C108.277 473.88 107.681 474.597 107.173 475.204C106.936 475.475 106.593 475.63 106.233 475.63C105.873 475.63 105.531 475.475 105.294 475.204C104.786 474.597 104.19 473.88 103.528 473.068C101.536 470.627 98.5301 466.827 95.5232 462.585C92.5674 458.504 89.9064 454.217 87.5608 449.758C85.2175 445.164 84.0335 441.434 84.0335 438.674C84.0328 429.74 89.3753 421.673 97.6003 418.187C103.127 415.869 109.353 415.869 114.879 418.187C115.285 418.359 115.752 418.302 116.104 418.036C116.456 417.771 116.639 417.338 116.585 416.9C116.532 416.463 116.248 416.087 115.843 415.915C103.283 410.618 88.807 416.502 83.5057 429.06C82.2201 432.102 81.5607 435.372 81.5669 438.674C81.5669 441.826 82.8447 445.932 85.3632 450.884C87.7627 455.447 90.4856 459.833 93.5102 464.009Z"
              fill="#448AFF"/>
        <path d="M106.233 427.54C106.914 427.54 107.466 426.988 107.466 426.307C107.466 425.626 106.914 425.074 106.233 425.074C100.349 425.074 95.2842 429.23 94.1362 435.001C92.9882 440.772 96.0767 446.55 101.513 448.802C106.949 451.053 113.218 449.152 116.487 444.259C119.756 439.367 119.114 432.847 114.954 428.686C114.644 428.366 114.185 428.237 113.754 428.35C113.323 428.463 112.986 428.799 112.873 429.231C112.761 429.662 112.889 430.12 113.21 430.43C116.538 433.759 117.052 438.975 114.437 442.888C111.822 446.802 106.806 448.324 102.458 446.523C98.1088 444.722 95.6379 440.099 96.5559 435.482C97.474 430.866 101.526 427.54 106.233 427.54Z"
              fill="#448AFF"/>
        <path d="M142.768 481.278L135.183 467.712C134.497 466.506 133.214 465.765 131.827 465.774H123.037C122.356 465.774 121.804 466.326 121.804 467.007C121.804 467.688 122.356 468.241 123.037 468.241H131.827C132.321 468.231 132.782 468.488 133.032 468.914L140.615 482.481C140.821 482.834 140.817 483.271 140.604 483.62C140.352 484.037 139.896 484.286 139.41 484.274H73.0562C72.5703 484.286 72.1153 484.036 71.8636 483.62C71.6502 483.271 71.6461 482.834 71.8524 482.481L79.435 468.914C79.6852 468.489 80.1454 468.231 80.6387 468.241H89.4287C90.1098 468.241 90.662 467.688 90.662 467.007C90.662 466.326 90.1098 465.774 89.4287 465.774H80.6388C79.2513 465.765 77.967 466.506 77.2805 467.712L69.6966 481.278C69.0643 482.395 69.0789 483.765 69.7349 484.869C70.4261 486.043 71.6935 486.758 73.0562 486.741H139.41C140.772 486.757 142.039 486.043 142.73 484.869C143.386 483.765 143.401 482.395 142.768 481.278Z"
              fill="#448AFF"/>
        <path d="M129.666 471.94H124.733C124.489 471.941 124.251 472.013 124.048 472.148L120.348 474.614C119.782 474.993 119.629 475.758 120.007 476.325C120.385 476.892 121.151 477.045 121.717 476.667L125.103 474.407H129.666C130.347 474.407 130.9 473.855 130.9 473.174C130.9 472.493 130.347 471.94 129.666 471.94Z"
              fill="#448AFF"/>
        <path d="M122.266 480.574C122.266 481.255 122.818 481.807 123.499 481.807H133.366C134.047 481.807 134.599 481.255 134.599 480.574C134.599 479.893 134.047 479.341 133.366 479.341H123.499C122.818 479.341 122.266 479.893 122.266 480.574Z"
              fill="#448AFF"/>
        <path d="M91.433 476.874C91.9767 476.875 92.4567 476.519 92.6147 475.999C92.7727 475.478 92.5712 474.916 92.1188 474.614L88.4188 472.148C88.2156 472.013 87.977 471.941 87.733 471.94H82.7997C82.1185 471.94 81.5664 472.493 81.5664 473.174C81.5664 473.855 82.1187 474.407 82.7997 474.407H87.363L90.7523 476.666C90.9539 476.801 91.1908 476.873 91.433 476.874Z"
              fill="#448AFF"/>
        <path d="M79.0995 479.341C78.4183 479.341 77.8662 479.893 77.8662 480.574C77.8662 481.255 78.4183 481.807 79.0995 481.807H88.9663C89.6474 481.807 90.1995 481.255 90.1995 480.574C90.1995 479.893 89.6474 479.341 88.9663 479.341H79.0995Z"
              fill="#448AFF"/>
    </g>
    <g opacity="0.05" clip-path="url(#clip5)">
        <path d="M1011.41 476.976C1015.2 482.318 1018.99 487.096 1021.49 490.173C1021.86 490.621 1022.2 491.036 1022.53 491.436H1014.97C1014.12 491.436 1013.43 492.123 1013.43 492.97C1013.43 493.817 1014.12 494.503 1014.97 494.503H1039.5C1040.35 494.503 1041.03 493.817 1041.03 492.97C1041.03 492.123 1040.35 491.436 1039.5 491.436H1031.93C1032.27 491.036 1032.61 490.621 1032.97 490.173C1035.48 487.106 1039.26 482.318 1043.05 476.976C1046.81 471.782 1050.2 466.326 1053.18 460.65C1056.31 454.502 1057.9 449.397 1057.9 445.478C1057.91 437.334 1054.68 429.521 1048.92 423.764C1048.53 423.365 1047.96 423.205 1047.43 423.345C1046.89 423.485 1046.47 423.903 1046.33 424.439C1046.19 424.975 1046.35 425.545 1046.75 425.931C1051.93 431.114 1054.84 438.147 1054.83 445.478C1054.83 448.909 1053.36 453.546 1050.45 459.258C1047.53 464.802 1044.22 470.131 1040.55 475.205C1036.81 480.478 1033.07 485.202 1030.6 488.238C1029.77 489.247 1029.03 490.139 1028.4 490.894C1028.11 491.231 1027.68 491.424 1027.23 491.424C1026.79 491.424 1026.36 491.23 1026.06 490.894C1025.43 490.139 1024.69 489.247 1023.87 488.238C1021.39 485.204 1017.66 480.479 1013.92 475.205C1010.24 470.131 1006.93 464.802 1004.02 459.258C1001.11 453.546 999.633 448.909 999.633 445.478C999.632 434.371 1006.27 424.342 1016.5 420.007C1023.37 417.126 1031.11 417.126 1037.98 420.007C1038.49 420.221 1039.07 420.15 1039.5 419.82C1039.94 419.49 1040.17 418.952 1040.1 418.408C1040.04 417.864 1039.68 417.397 1039.18 417.183C1023.56 410.597 1005.57 417.913 998.977 433.525C997.378 437.307 996.559 441.372 996.566 445.478C996.566 449.397 998.155 454.502 1001.29 460.658C1004.27 466.331 1007.65 471.784 1011.41 476.976Z"
              fill="#448AFF"/>
        <path d="M1027.23 431.636C1028.08 431.636 1028.77 430.95 1028.77 430.103C1028.77 429.256 1028.08 428.57 1027.23 428.57C1019.92 428.57 1013.62 433.737 1012.19 440.912C1010.77 448.086 1014.61 455.27 1021.36 458.069C1028.12 460.869 1035.92 458.504 1039.98 452.422C1044.05 446.34 1043.25 438.234 1038.07 433.061C1037.69 432.662 1037.12 432.502 1036.58 432.643C1036.05 432.783 1035.63 433.202 1035.49 433.738C1035.35 434.274 1035.51 434.844 1035.91 435.229C1040.04 439.367 1040.68 445.852 1037.43 450.718C1034.18 455.584 1027.95 457.476 1022.54 455.236C1017.13 452.997 1014.06 447.25 1015.2 441.51C1016.34 435.771 1021.38 431.637 1027.23 431.636Z"
              fill="#448AFF"/>
        <path d="M1072.66 498.446L1063.23 481.579C1062.37 480.08 1060.78 479.159 1059.05 479.17H1048.12C1047.28 479.17 1046.59 479.856 1046.59 480.703C1046.59 481.55 1047.28 482.237 1048.12 482.237H1059.05C1059.67 482.225 1060.24 482.545 1060.55 483.074L1069.98 499.941C1070.23 500.379 1070.23 500.924 1069.96 501.357C1069.65 501.875 1069.08 502.185 1068.48 502.17H985.986C985.382 502.184 984.817 501.874 984.504 501.357C984.238 500.924 984.233 500.379 984.49 499.941L993.917 483.074C994.228 482.545 994.8 482.225 995.413 482.237H1006.34C1007.19 482.237 1007.87 481.55 1007.87 480.703C1007.87 479.856 1007.19 479.17 1006.34 479.17H995.413C993.688 479.159 992.092 480.08 991.238 481.579L981.81 498.446C981.023 499.834 981.042 501.538 981.857 502.909C982.716 504.37 984.292 505.258 985.986 505.237H1068.48C1070.17 505.258 1071.75 504.369 1072.61 502.909C1073.42 501.538 1073.44 499.834 1072.66 498.446Z"
              fill="#448AFF"/>
        <path d="M1056.37 486.836H1050.23C1049.93 486.837 1049.63 486.926 1049.38 487.094L1044.78 490.161C1044.08 490.631 1043.89 491.583 1044.36 492.288C1044.83 492.992 1045.78 493.182 1046.48 492.712L1050.69 489.903H1056.37C1057.21 489.903 1057.9 489.217 1057.9 488.37C1057.9 487.523 1057.21 486.836 1056.37 486.836Z"
              fill="#448AFF"/>
        <path d="M1047.17 497.57C1047.17 498.417 1047.85 499.103 1048.7 499.103H1060.97C1061.81 499.103 1062.5 498.417 1062.5 497.57C1062.5 496.723 1061.81 496.037 1060.97 496.037H1048.7C1047.85 496.037 1047.17 496.723 1047.17 497.57Z"
              fill="#448AFF"/>
        <path d="M1008.83 492.97C1009.51 492.971 1010.11 492.529 1010.3 491.882C1010.5 491.235 1010.25 490.536 1009.69 490.161L1005.09 487.094C1004.83 486.926 1004.54 486.837 1004.23 486.836H998.1C997.253 486.836 996.566 487.523 996.566 488.37C996.566 489.217 997.253 489.903 998.1 489.903H1003.77L1007.99 492.712C1008.24 492.88 1008.53 492.969 1008.83 492.97Z"
              fill="#448AFF"/>
        <path d="M993.5 496.037C992.653 496.037 991.967 496.723 991.967 497.57C991.967 498.417 992.653 499.103 993.5 499.103H1005.77C1006.61 499.103 1007.3 498.417 1007.3 497.57C1007.3 496.723 1006.61 496.037 1005.77 496.037H993.5Z"
              fill="#448AFF"/>
    </g>
    <g opacity="0.09" clip-path="url(#clip6)">
        <path d="M1123.35 371.187C1123 370.842 1122.53 370.644 1122.04 370.644C1121.55 370.644 1121.07 370.842 1120.73 371.187C1120.38 371.532 1120.18 372.011 1120.18 372.499C1120.18 372.987 1120.38 373.466 1120.73 373.811C1121.07 374.156 1121.55 374.354 1122.04 374.354C1122.53 374.354 1123 374.156 1123.35 373.811C1123.69 373.466 1123.89 372.987 1123.89 372.499C1123.89 372.011 1123.69 371.532 1123.35 371.187Z"
              fill="#448AFF"/>
        <path d="M1149.33 299.418C1148.99 299.071 1148.51 298.875 1148.02 298.875C1147.53 298.875 1147.05 299.071 1146.71 299.418C1146.36 299.763 1146.17 300.24 1146.17 300.73C1146.17 301.218 1146.36 301.697 1146.71 302.042C1147.05 302.387 1147.53 302.585 1148.02 302.585C1148.51 302.585 1148.99 302.387 1149.33 302.042C1149.68 301.697 1149.88 301.218 1149.88 300.73C1149.88 300.24 1149.68 299.763 1149.33 299.418Z"
              fill="#448AFF"/>
        <path d="M1198.69 308.843L1191.27 301.421C1190.92 301.073 1190.45 300.878 1189.96 300.878H1157.3V292.857C1158.74 291.425 1159.63 289.443 1159.63 287.256C1159.63 282.899 1156.09 279.354 1151.73 279.354C1147.38 279.354 1143.83 282.899 1143.83 287.256C1143.83 291.613 1147.38 295.157 1151.73 295.157C1152.37 295.157 1152.99 295.079 1153.59 294.935V370.643H1149.88V310.155C1149.88 309.13 1149.05 308.3 1148.02 308.3C1147 308.3 1146.17 309.13 1146.17 310.155V323.146H1113.51C1113.02 323.146 1112.55 323.342 1112.2 323.69L1104.78 331.111C1104.05 331.836 1104.05 333.011 1104.78 333.736L1112.2 341.157C1112.55 341.505 1113.02 341.701 1113.51 341.701H1146.17V370.644H1129.28C1128.25 370.644 1127.42 371.475 1127.42 372.499C1127.42 373.524 1128.25 374.355 1129.28 374.355H1181.43C1182.45 374.355 1183.28 373.524 1183.28 372.499C1183.28 371.475 1182.45 370.644 1181.43 370.644H1157.3V349.122H1179.94C1180.43 349.122 1180.9 348.927 1181.25 348.579L1188.67 341.157C1189.39 340.433 1189.39 339.258 1188.67 338.533L1181.25 331.111C1180.9 330.763 1180.43 330.568 1179.94 330.568H1157.3V319.432H1189.96C1190.45 319.432 1190.92 319.237 1191.27 318.889L1198.69 311.467C1199.41 310.742 1199.41 309.568 1198.69 308.843ZM1146.17 337.99H1114.28L1108.71 332.423L1114.28 326.857H1146.17V337.99ZM1151.73 291.446C1149.42 291.446 1147.54 289.566 1147.54 287.256C1147.54 284.945 1149.42 283.065 1151.73 283.065C1154.04 283.065 1155.92 284.945 1155.92 287.256C1155.92 289.566 1154.04 291.446 1151.73 291.446ZM1179.17 334.279L1184.73 339.845L1179.17 345.411H1157.3V334.279H1179.17ZM1189.19 315.721H1157.3V304.589H1189.19L1194.75 310.155L1189.19 315.721Z"
              fill="#448AFF"/>
    </g>
    <g opacity="0.09" clip-path="url(#clip7)">
        <path d="M340.052 418.482C339.656 417.878 338.844 417.71 338.24 418.107C333.633 421.136 328.271 422.737 322.732 422.737C307.147 422.737 294.467 410.057 294.467 394.472C294.467 389.049 296.006 383.781 298.919 379.238C299.309 378.629 299.132 377.82 298.524 377.43C297.915 377.04 297.106 377.217 296.716 377.825C293.532 382.791 291.85 388.547 291.85 394.472C291.85 402.721 295.062 410.476 300.895 416.309C306.728 422.142 314.483 425.354 322.732 425.354C328.783 425.354 334.643 423.605 339.678 420.294C340.282 419.897 340.45 419.086 340.052 418.482Z"
              fill="#448AFF"/>
        <path d="M344.57 372.634C340.072 368.136 334.43 365.199 328.301 364.089C328.303 364.035 328.305 363.981 328.305 363.927C328.305 360.854 325.805 358.354 322.732 358.354C319.66 358.354 317.16 360.854 317.16 363.927C317.16 363.983 317.161 364.038 317.163 364.094C313.477 364.767 309.935 366.105 306.717 368.061C306.099 368.436 305.903 369.241 306.278 369.859C306.654 370.476 307.458 370.673 308.076 370.297C312.481 367.621 317.549 366.206 322.732 366.206C338.318 366.206 350.998 378.886 350.998 394.472C350.998 399.732 349.543 404.866 346.791 409.316C346.41 409.931 346.601 410.738 347.215 411.118C347.43 411.25 347.667 411.314 347.902 411.314C348.341 411.314 348.769 411.093 349.017 410.693C352.025 405.828 353.615 400.219 353.615 394.472C353.615 386.223 350.403 378.467 344.57 372.634ZM322.732 363.589C321.744 363.589 320.761 363.637 319.784 363.73C319.886 362.192 321.169 360.972 322.732 360.972C324.295 360.972 325.577 362.191 325.68 363.728C324.706 363.636 323.723 363.589 322.732 363.589Z"
              fill="#448AFF"/>
        <path d="M323.657 393.547C323.414 393.303 323.077 393.163 322.732 393.163C322.388 393.163 322.051 393.303 321.807 393.547C321.564 393.79 321.424 394.128 321.424 394.472C321.424 394.816 321.564 395.153 321.807 395.397C322.051 395.64 322.388 395.78 322.732 395.78C323.078 395.78 323.414 395.64 323.657 395.397C323.901 395.153 324.041 394.816 324.041 394.472C324.041 394.128 323.901 393.79 323.657 393.547Z"
              fill="#448AFF"/>
        <path d="M323.657 374.834C323.414 374.59 323.078 374.45 322.732 374.45C322.388 374.45 322.051 374.59 321.807 374.834C321.564 375.077 321.424 375.415 321.424 375.759C321.424 376.103 321.564 376.441 321.807 376.684C322.051 376.927 322.388 377.067 322.732 377.067C323.077 377.067 323.414 376.927 323.657 376.684C323.901 376.441 324.041 376.103 324.041 375.759C324.041 375.415 323.901 375.077 323.657 374.834Z"
              fill="#448AFF"/>
        <path d="M323.657 412.259C323.414 412.016 323.078 411.876 322.732 411.876C322.388 411.876 322.051 412.016 321.807 412.259C321.564 412.503 321.424 412.84 321.424 413.185C321.424 413.529 321.564 413.866 321.807 414.11C322.051 414.353 322.388 414.493 322.732 414.493C323.077 414.493 323.414 414.353 323.657 414.11C323.901 413.866 324.041 413.529 324.041 413.185C324.041 412.84 323.901 412.503 323.657 412.259Z"
              fill="#448AFF"/>
        <path d="M342.37 393.547C342.127 393.303 341.789 393.163 341.445 393.163C341.101 393.163 340.764 393.303 340.52 393.547C340.277 393.79 340.137 394.128 340.137 394.472C340.137 394.816 340.277 395.153 340.52 395.397C340.764 395.64 341.101 395.78 341.445 395.78C341.789 395.78 342.127 395.64 342.37 395.397C342.614 395.153 342.754 394.816 342.754 394.472C342.754 394.128 342.614 393.79 342.37 393.547Z"
              fill="#448AFF"/>
        <path d="M304.945 393.547C304.701 393.303 304.364 393.163 304.02 393.163C303.675 393.163 303.338 393.303 303.094 393.547C302.851 393.79 302.711 394.128 302.711 394.472C302.711 394.816 302.851 395.153 303.094 395.397C303.338 395.64 303.675 395.78 304.02 395.78C304.364 395.78 304.701 395.64 304.945 395.397C305.188 395.153 305.328 394.816 305.328 394.472C305.328 394.128 305.188 393.79 304.945 393.547Z"
              fill="#448AFF"/>
        <path d="M322.732 369.608C309.023 369.608 297.869 380.762 297.869 394.472C297.869 408.181 309.023 419.335 322.732 419.335C336.442 419.335 347.596 408.181 347.596 394.472C347.596 380.762 336.442 369.608 322.732 369.608ZM300.486 394.472C300.486 382.205 310.466 372.226 322.732 372.226C328.339 372.226 333.468 374.312 337.385 377.747L322.775 387.93C322.761 387.93 322.747 387.929 322.732 387.929C319.124 387.929 316.189 390.864 316.189 394.472C316.189 394.486 316.19 394.5 316.19 394.514L305.991 409.104C302.565 405.19 300.486 400.069 300.486 394.472ZM318.822 394.804C318.821 394.799 318.821 394.795 318.821 394.79C318.812 394.685 318.807 394.579 318.807 394.472C318.807 392.307 320.568 390.546 322.732 390.546C322.839 390.546 322.945 390.551 323.05 390.56C323.054 390.56 323.058 390.561 323.062 390.561C324.964 390.72 326.484 392.239 326.643 394.141C326.644 394.145 326.644 394.15 326.644 394.155C326.653 394.26 326.658 394.365 326.658 394.472C326.658 396.636 324.897 398.397 322.732 398.397C322.625 398.397 322.519 398.392 322.413 398.383C322.409 398.383 322.405 398.383 322.401 398.382C320.501 398.223 318.982 396.704 318.822 394.804ZM319.417 400.109L311.703 405.502L317.095 397.788C317.66 398.744 318.46 399.544 319.417 400.109ZM326.052 388.836L333.695 383.509L328.368 391.152C327.804 390.199 327.005 389.4 326.052 388.836ZM322.732 416.718C317.135 416.718 312.014 414.639 308.1 411.213L322.69 401.014C322.705 401.014 322.718 401.015 322.733 401.015C326.34 401.015 329.276 398.079 329.276 394.472C329.276 394.457 329.274 394.443 329.274 394.429L339.457 379.819C342.892 383.736 344.979 388.865 344.979 394.472C344.979 406.738 334.999 416.718 322.732 416.718Z"
              fill="#448AFF"/>
        <path d="M302.791 372.59C302.547 372.346 302.21 372.207 301.866 372.207C301.52 372.207 301.183 372.346 300.941 372.59C300.696 372.834 300.557 373.17 300.557 373.516C300.557 373.86 300.696 374.197 300.941 374.441C301.184 374.684 301.52 374.824 301.866 374.824C302.21 374.824 302.546 374.684 302.791 374.441C303.034 374.197 303.173 373.86 303.173 373.516C303.173 373.17 303.034 372.833 302.791 372.59Z"
              fill="#448AFF"/>
        <path d="M345.339 413.659C345.095 413.416 344.758 413.277 344.414 413.277C344.069 413.277 343.732 413.416 343.488 413.659C343.245 413.903 343.105 414.24 343.105 414.586C343.105 414.93 343.245 415.268 343.488 415.511C343.732 415.755 344.069 415.895 344.414 415.895C344.758 415.895 345.095 415.755 345.339 415.511C345.582 415.268 345.722 414.93 345.722 414.586C345.722 414.24 345.582 413.904 345.339 413.659Z"
              fill="#448AFF"/>
    </g>
    <g opacity="0.06">
        <path d="M1247.71 459.256C1247.38 458.751 1246.7 458.611 1246.19 458.943C1242.34 461.474 1237.86 462.812 1233.23 462.812C1220.21 462.812 1209.61 452.214 1209.61 439.188C1209.61 434.655 1210.89 430.252 1213.33 426.455C1213.65 425.946 1213.51 425.27 1213 424.944C1212.49 424.618 1211.81 424.766 1211.49 425.274C1208.83 429.424 1207.42 434.236 1207.42 439.188C1207.42 446.082 1210.1 452.564 1214.98 457.44C1219.86 462.315 1226.34 465 1233.23 465C1238.29 465 1243.19 463.537 1247.4 460.77C1247.9 460.439 1248.04 459.76 1247.71 459.256Z"
              fill="#448AFF"/>
        <path d="M1251.49 420.935C1247.73 417.176 1243.01 414.721 1237.89 413.793C1237.89 413.748 1237.89 413.703 1237.89 413.658C1237.89 411.089 1235.8 409 1233.23 409C1230.66 409 1228.58 411.089 1228.58 413.658C1228.58 413.704 1228.58 413.751 1228.58 413.797C1225.5 414.36 1222.54 415.478 1219.85 417.113C1219.33 417.426 1219.17 418.099 1219.48 418.615C1219.79 419.132 1220.47 419.296 1220.98 418.982C1224.67 416.745 1228.9 415.562 1233.23 415.562C1246.26 415.562 1256.86 426.161 1256.86 439.187C1256.86 443.585 1255.64 447.875 1253.34 451.595C1253.02 452.109 1253.18 452.783 1253.7 453.101C1253.88 453.212 1254.07 453.264 1254.27 453.264C1254.64 453.264 1254.99 453.08 1255.2 452.746C1257.72 448.68 1259.05 443.991 1259.05 439.187C1259.05 432.293 1256.36 425.811 1251.49 420.935ZM1233.23 413.375C1232.41 413.375 1231.59 413.415 1230.77 413.493C1230.85 412.208 1231.93 411.187 1233.23 411.187C1234.54 411.187 1235.61 412.207 1235.7 413.491C1234.88 413.415 1234.06 413.375 1233.23 413.375Z"
              fill="#448AFF"/>
        <path d="M1234.01 438.414C1233.8 438.211 1233.52 438.094 1233.23 438.094C1232.94 438.094 1232.66 438.211 1232.46 438.414C1232.26 438.618 1232.14 438.9 1232.14 439.188C1232.14 439.475 1232.26 439.757 1232.46 439.961C1232.66 440.164 1232.94 440.281 1233.23 440.281C1233.52 440.281 1233.8 440.164 1234.01 439.961C1234.21 439.757 1234.33 439.475 1234.33 439.188C1234.33 438.9 1234.21 438.618 1234.01 438.414Z"
              fill="#448AFF"/>
        <path d="M1234.01 422.774C1233.8 422.57 1233.52 422.453 1233.23 422.453C1232.94 422.453 1232.66 422.57 1232.46 422.774C1232.26 422.977 1232.14 423.259 1232.14 423.547C1232.14 423.835 1232.26 424.117 1232.46 424.32C1232.66 424.524 1232.94 424.641 1233.23 424.641C1233.52 424.641 1233.8 424.524 1234.01 424.32C1234.21 424.117 1234.33 423.835 1234.33 423.547C1234.33 423.259 1234.21 422.977 1234.01 422.774Z"
              fill="#448AFF"/>
        <path d="M1234.01 454.055C1233.8 453.851 1233.52 453.734 1233.23 453.734C1232.94 453.734 1232.66 453.851 1232.46 454.055C1232.26 454.258 1232.14 454.54 1232.14 454.828C1232.14 455.116 1232.26 455.398 1232.46 455.601C1232.66 455.805 1232.94 455.922 1233.23 455.922C1233.52 455.922 1233.8 455.805 1234.01 455.601C1234.21 455.398 1234.33 455.116 1234.33 454.828C1234.33 454.54 1234.21 454.258 1234.01 454.055Z"
              fill="#448AFF"/>
        <path d="M1249.65 438.414C1249.44 438.211 1249.16 438.094 1248.87 438.094C1248.59 438.094 1248.3 438.211 1248.1 438.414C1247.9 438.618 1247.78 438.9 1247.78 439.188C1247.78 439.475 1247.9 439.757 1248.1 439.961C1248.3 440.164 1248.59 440.281 1248.87 440.281C1249.16 440.281 1249.44 440.164 1249.65 439.961C1249.85 439.757 1249.97 439.475 1249.97 439.188C1249.97 438.9 1249.85 438.618 1249.65 438.414Z"
              fill="#448AFF"/>
        <path d="M1218.36 438.414C1218.16 438.211 1217.88 438.094 1217.59 438.094C1217.3 438.094 1217.02 438.211 1216.82 438.414C1216.62 438.618 1216.5 438.9 1216.5 439.188C1216.5 439.475 1216.61 439.757 1216.82 439.961C1217.02 440.164 1217.3 440.281 1217.59 440.281C1217.88 440.281 1218.16 440.164 1218.36 439.961C1218.57 439.757 1218.69 439.475 1218.69 439.188C1218.69 438.9 1218.57 438.618 1218.36 438.414Z"
              fill="#448AFF"/>
        <path d="M1233.23 418.406C1221.77 418.406 1212.45 427.729 1212.45 439.188C1212.45 450.646 1221.77 459.969 1233.23 459.969C1244.69 459.969 1254.01 450.646 1254.01 439.188C1254.01 427.729 1244.69 418.406 1233.23 418.406ZM1214.64 439.188C1214.64 428.935 1222.98 420.594 1233.23 420.594C1237.92 420.594 1242.21 422.337 1245.48 425.209L1233.27 433.72C1233.26 433.72 1233.24 433.719 1233.23 433.719C1230.22 433.719 1227.76 436.172 1227.76 439.188C1227.76 439.199 1227.76 439.211 1227.76 439.223L1219.24 451.418C1216.38 448.146 1214.64 443.866 1214.64 439.188ZM1229.96 439.465C1229.96 439.461 1229.96 439.458 1229.96 439.454C1229.96 439.366 1229.95 439.277 1229.95 439.188C1229.95 437.378 1231.42 435.906 1233.23 435.906C1233.32 435.906 1233.41 435.911 1233.5 435.918C1233.5 435.918 1233.5 435.918 1233.51 435.919C1235.1 436.052 1236.37 437.322 1236.5 438.911C1236.5 438.915 1236.5 438.919 1236.5 438.923C1236.51 439.01 1236.51 439.098 1236.51 439.188C1236.51 440.997 1235.04 442.469 1233.23 442.469C1233.14 442.469 1233.05 442.464 1232.97 442.457C1232.96 442.457 1232.96 442.456 1232.96 442.456C1231.37 442.323 1230.1 441.054 1229.96 439.465ZM1230.46 443.899L1224.01 448.406L1228.52 441.959C1228.99 442.758 1229.66 443.427 1230.46 443.899ZM1236.01 434.477L1242.39 430.025L1237.94 436.413C1237.47 435.616 1236.8 434.949 1236.01 434.477ZM1233.23 457.781C1228.55 457.781 1224.27 456.044 1221 453.181L1233.2 444.655C1233.21 444.655 1233.22 444.656 1233.23 444.656C1236.25 444.656 1238.7 442.203 1238.7 439.188C1238.7 439.175 1238.7 439.164 1238.7 439.152L1247.21 426.941C1250.08 430.214 1251.83 434.501 1251.83 439.188C1251.83 449.44 1243.49 457.781 1233.23 457.781Z"
              fill="#448AFF"/>
        <path d="M1216.57 420.899C1216.36 420.694 1216.08 420.578 1215.79 420.578C1215.5 420.578 1215.22 420.694 1215.02 420.899C1214.81 421.102 1214.7 421.383 1214.7 421.672C1214.7 421.96 1214.81 422.242 1215.02 422.445C1215.22 422.649 1215.5 422.766 1215.79 422.766C1216.08 422.766 1216.36 422.649 1216.57 422.445C1216.77 422.242 1216.88 421.96 1216.88 421.672C1216.88 421.383 1216.77 421.101 1216.57 420.899Z"
              fill="#448AFF"/>
        <path d="M1252.13 455.225C1251.92 455.022 1251.64 454.906 1251.35 454.906C1251.07 454.906 1250.78 455.022 1250.58 455.225C1250.38 455.429 1250.26 455.711 1250.26 456C1250.26 456.287 1250.38 456.569 1250.58 456.773C1250.78 456.976 1251.07 457.093 1251.35 457.093C1251.64 457.093 1251.92 456.976 1252.13 456.773C1252.33 456.569 1252.45 456.287 1252.45 456C1252.45 455.711 1252.33 455.43 1252.13 455.225Z"
              fill="#448AFF"/>
    </g>
    <defs>
        <linearGradient id="paint0_linear" x1="735.998" y1="-3.41838" x2="736.1" y2="480.836"
                        gradientUnits="userSpaceOnUse">
            <stop stop-color="#448AFF"/>
            <stop offset="1" stop-color="white" stop-opacity="0"/>
        </linearGradient>
        <linearGradient id="paint1_linear" x1="739.998" y1="11.0092" x2="740.1" y2="494.915"
                        gradientUnits="userSpaceOnUse">
            <stop stop-color="#448AFF"/>
            <stop offset="1" stop-color="white" stop-opacity="0"/>
        </linearGradient>
        <clipPath id="clip0">
            <rect width="112" height="112" fill="white" transform="matrix(-1 0 0 1 232.232 183.354)"/>
        </clipPath>
        <clipPath id="clip1">
            <rect width="74" height="74" fill="white" transform="translate(812.232 346.354)"/>
        </clipPath>
        <clipPath id="clip2">
            <rect width="100" height="100" fill="white" transform="translate(1198.23 105.354)"/>
        </clipPath>
        <clipPath id="clip3">
            <rect width="68" height="68" fill="white" transform="translate(537.232 338)"/>
        </clipPath>
        <clipPath id="clip4">
            <rect width="74" height="74" fill="white" transform="translate(69.2324 413.354)"/>
        </clipPath>
        <clipPath id="clip5">
            <rect width="92" height="92" fill="white" transform="translate(981.232 414)"/>
        </clipPath>
        <clipPath id="clip6">
            <rect width="95" height="95" fill="white" transform="translate(1104.23 279.354)"/>
        </clipPath>
        <clipPath id="clip7">
            <rect width="67" height="67" fill="white" transform="translate(289.232 358.354)"/>
        </clipPath>
    </defs>
</svg>
