<svg width="29" height="28" viewBox="0 0 29 28" fill="none" xmlns="http://www.w3.org/2000/svg">
    <g clip-path="url(#clip0)">
        <path d="M12.1152 17.0683C14.216 15.9789 16.2985 14.8996 18.4001 13.8097C16.2922 12.7097 14.2103 11.6241 12.1152 10.5307C12.1152 12.7175 12.1152 14.8818 12.1152 17.0683Z"
              fill="white"/>
        <path d="M14.666 0C6.93429 0 0.666016 6.26799 0.666016 14C0.666016 21.732 6.93429 28 14.666 28C22.3977 28 28.666 21.732 28.666 14C28.666 6.26799 22.3977 0 14.666 0ZM24.2049 18.6731C23.9626 19.7243 23.1027 20.4997 22.0678 20.6152C19.6166 20.8893 17.136 20.8907 14.6654 20.8893C12.1949 20.8907 9.71367 20.8893 7.26199 20.6152C6.22706 20.4997 5.36772 19.7243 5.12596 18.6731C4.78137 17.1755 4.78137 15.5414 4.78137 14C4.78137 12.4586 4.78538 10.8239 5.12997 9.32694C5.37173 8.27568 6.23107 7.49999 7.266 7.38427C9.71768 7.11042 12.1989 7.10899 14.6695 7.11042C17.1395 7.10899 19.6207 7.11042 22.0715 7.38427C23.107 7.49999 23.9669 8.2754 24.2086 9.32694C24.5532 10.8242 24.5504 12.4586 24.5504 14C24.5504 15.5414 24.5495 17.1758 24.2049 18.6731Z"
              fill="white"/>
    </g>
    <defs>
        <clipPath id="clip0">
            <rect width="28" height="28" fill="white" transform="translate(0.666016)"/>
        </clipPath>
    </defs>
</svg>
